<svg width="988" height="554" viewBox="0 0 988 554" fill="none" xmlns="http://www.w3.org/2000/svg">
<path d="M93.28 105V93.8H96.912C97.6907 93.8 98.3707 93.92 98.952 94.16C99.5333 94.4 99.984 94.7707 100.304 95.272C100.624 95.7733 100.784 96.4187 100.784 97.208C100.784 97.976 100.616 98.6187 100.28 99.136C99.9493 99.6533 99.4667 100.061 98.832 100.36L101.344 105H99.488L97.216 100.632C97.2 100.632 97.1867 100.632 97.176 100.632C97.1653 100.632 97.152 100.632 97.136 100.632H94.88V105H93.28ZM94.88 99.272H96.896C97.6587 99.272 98.232 99.088 98.616 98.72C99.0053 98.352 99.2 97.848 99.2 97.208C99.2 96.5573 99.0053 96.0533 98.616 95.696C98.232 95.3387 97.6587 95.16 96.896 95.16H94.88V99.272ZM106.08 105.16C105.157 105.16 104.381 104.971 103.752 104.592C103.122 104.213 102.645 103.712 102.32 103.088C102 102.459 101.84 101.768 101.84 101.016C101.84 100.285 101.989 99.616 102.288 99.008C102.592 98.4 103.029 97.9147 103.6 97.552C104.176 97.184 104.869 97 105.68 97C106.33 97 106.909 97.1307 107.416 97.392C107.928 97.648 108.328 98.024 108.616 98.52C108.909 99.0107 109.056 99.608 109.056 100.312C109.056 100.424 109.05 100.547 109.04 100.68C109.034 100.808 109.018 100.941 108.992 101.08H103.312C103.381 101.805 103.554 102.371 103.832 102.776C104.109 103.181 104.458 103.467 104.88 103.632C105.301 103.797 105.76 103.88 106.256 103.88C106.618 103.88 106.997 103.843 107.392 103.768C107.786 103.693 108.16 103.576 108.512 103.416L108.704 104.552C108.4 104.685 108.029 104.821 107.592 104.96C107.154 105.093 106.65 105.16 106.08 105.16ZM103.44 100.088H107.568C107.568 99.72 107.498 99.4 107.36 99.128C107.221 98.856 107.01 98.648 106.728 98.504C106.445 98.3547 106.085 98.28 105.648 98.28C105.008 98.28 104.514 98.44 104.168 98.76C103.826 99.0747 103.584 99.5173 103.44 100.088ZM110.507 105V97.16H111.627L111.915 98.664L111.355 98.424C111.883 97.8373 112.398 97.4533 112.899 97.272C113.406 97.0907 113.899 97 114.379 97C115.526 97 116.345 97.3307 116.835 97.992C117.331 98.6533 117.579 99.5493 117.579 100.68V105H116.139V100.68C116.139 99.848 115.985 99.24 115.675 98.856C115.366 98.472 114.838 98.28 114.091 98.28C113.563 98.28 113.078 98.3973 112.635 98.632C112.198 98.8613 111.91 99.2293 111.771 99.736L111.947 98.856V105H110.507ZM122.869 105.16C122.047 105.16 121.346 104.979 120.765 104.616C120.189 104.248 119.746 103.757 119.437 103.144C119.133 102.525 118.981 101.837 118.981 101.08C118.981 100.323 119.133 99.6373 119.437 99.024C119.746 98.4053 120.189 97.9147 120.765 97.552C121.346 97.184 122.047 97 122.869 97C123.685 97 124.383 97.184 124.965 97.552C125.546 97.9147 125.989 98.4053 126.293 99.024C126.602 99.6373 126.757 100.323 126.757 101.08C126.757 101.837 126.602 102.525 126.293 103.144C125.989 103.757 125.546 104.248 124.965 104.616C124.383 104.979 123.685 105.16 122.869 105.16ZM122.869 103.88C123.647 103.88 124.245 103.635 124.661 103.144C125.077 102.648 125.285 101.96 125.285 101.08C125.285 100.2 125.077 99.5147 124.661 99.024C124.245 98.528 123.647 98.28 122.869 98.28C122.095 98.28 121.498 98.528 121.077 99.024C120.661 99.5147 120.453 100.2 120.453 101.08C120.453 101.96 120.661 102.648 121.077 103.144C121.498 103.635 122.095 103.88 122.869 103.88ZM130.261 105L127.269 97.16H128.869L131.061 103.416L133.237 97.16H134.853L131.877 105H130.261ZM137.706 105.16C137.221 105.16 136.797 105.061 136.434 104.864C136.072 104.667 135.789 104.397 135.586 104.056C135.389 103.715 135.29 103.325 135.29 102.888C135.29 102.445 135.386 102.067 135.578 101.752C135.776 101.432 136.037 101.168 136.362 100.96C136.693 100.747 137.061 100.579 137.466 100.456C137.872 100.328 138.29 100.237 138.722 100.184C139.16 100.125 139.578 100.093 139.978 100.088C139.978 99.3413 139.832 98.8533 139.538 98.624C139.245 98.3947 138.821 98.28 138.266 98.28C137.973 98.28 137.658 98.3253 137.322 98.416C136.992 98.5067 136.618 98.696 136.202 98.984L135.994 97.816C136.309 97.576 136.701 97.3813 137.17 97.232C137.64 97.0773 138.133 97 138.65 97C139.312 97 139.845 97.1173 140.25 97.352C140.656 97.5813 140.952 97.9707 141.138 98.52C141.325 99.0693 141.418 99.816 141.418 100.76V102.36C141.418 102.733 141.434 103.043 141.466 103.288C141.504 103.528 141.584 103.709 141.706 103.832C141.834 103.949 142.037 104.008 142.314 104.008H142.458L142.234 105.16H142.122C141.658 105.16 141.298 105.115 141.042 105.024C140.792 104.933 140.6 104.803 140.466 104.632C140.333 104.461 140.213 104.253 140.106 104.008C139.813 104.349 139.466 104.627 139.066 104.84C138.666 105.053 138.213 105.16 137.706 105.16ZM137.978 104.008C138.362 104.008 138.733 103.912 139.09 103.72C139.453 103.528 139.749 103.272 139.978 102.952V101.08C139.216 101.107 138.597 101.181 138.122 101.304C137.653 101.427 137.309 101.611 137.09 101.856C136.872 102.101 136.762 102.419 136.762 102.808C136.762 103.229 136.874 103.536 137.098 103.728C137.328 103.915 137.621 104.008 137.978 104.008ZM146.118 105.16C145.622 105.16 145.224 105.069 144.926 104.888C144.627 104.707 144.408 104.475 144.27 104.192C144.136 103.904 144.07 103.603 144.07 103.288V98.28H142.726L142.854 97.16H144.07V95.224L145.51 95.08V97.16H147.574V98.28H145.51V102.408C145.51 102.909 145.539 103.272 145.598 103.496C145.656 103.72 145.8 103.861 146.03 103.92C146.264 103.979 146.64 104.008 147.158 104.008H147.526L147.414 105.16H146.118ZM152.166 105.16C151.344 105.16 150.643 104.979 150.062 104.616C149.486 104.248 149.043 103.757 148.734 103.144C148.43 102.525 148.278 101.837 148.278 101.08C148.278 100.323 148.43 99.6373 148.734 99.024C149.043 98.4053 149.486 97.9147 150.062 97.552C150.643 97.184 151.344 97 152.166 97C152.982 97 153.68 97.184 154.262 97.552C154.843 97.9147 155.286 98.4053 155.59 99.024C155.899 99.6373 156.054 100.323 156.054 101.08C156.054 101.837 155.899 102.525 155.59 103.144C155.286 103.757 154.843 104.248 154.262 104.616C153.68 104.979 152.982 105.16 152.166 105.16ZM152.166 103.88C152.944 103.88 153.542 103.635 153.958 103.144C154.374 102.648 154.582 101.96 154.582 101.08C154.582 100.2 154.374 99.5147 153.958 99.024C153.542 98.528 152.944 98.28 152.166 98.28C151.392 98.28 150.795 98.528 150.374 99.024C149.958 99.5147 149.75 100.2 149.75 101.08C149.75 101.96 149.958 102.648 150.374 103.144C150.795 103.635 151.392 103.88 152.166 103.88ZM157.539 105V97.16H158.723L158.899 98.456C159.299 97.96 159.68 97.5947 160.043 97.36C160.411 97.12 160.803 97 161.219 97C161.352 97 161.475 97.016 161.587 97.048L161.443 98.632C161.373 98.616 161.299 98.6053 161.219 98.6C161.144 98.5893 161.059 98.584 160.963 98.584C160.547 98.584 160.163 98.6773 159.811 98.864C159.464 99.0453 159.219 99.2453 159.075 99.464V105H157.539ZM164.825 105.16C164.132 105.16 163.556 105.077 163.097 104.912C162.644 104.747 162.324 104.6 162.137 104.472L162.313 103.08C162.484 103.229 162.785 103.4 163.217 103.592C163.649 103.784 164.164 103.88 164.761 103.88C165.268 103.88 165.654 103.795 165.921 103.624C166.193 103.453 166.329 103.213 166.329 102.904C166.329 102.632 166.241 102.413 166.065 102.248C165.894 102.077 165.686 101.944 165.441 101.848C165.201 101.747 164.974 101.667 164.761 101.608C164.404 101.512 164.033 101.392 163.649 101.248C163.27 101.099 162.95 100.877 162.689 100.584C162.428 100.291 162.297 99.88 162.297 99.352C162.297 98.952 162.393 98.5733 162.585 98.216C162.777 97.8533 163.089 97.56 163.521 97.336C163.953 97.112 164.526 97 165.241 97C165.764 97 166.188 97.056 166.513 97.168C166.844 97.2747 167.129 97.3893 167.369 97.512L167.193 98.824C166.964 98.632 166.697 98.4693 166.393 98.336C166.089 98.2027 165.716 98.136 165.273 98.136C164.825 98.136 164.46 98.2213 164.177 98.392C163.894 98.5573 163.753 98.824 163.753 99.192C163.753 99.56 163.902 99.8213 164.201 99.976C164.505 100.131 164.964 100.301 165.577 100.488C165.769 100.541 165.99 100.619 166.241 100.72C166.497 100.821 166.745 100.957 166.985 101.128C167.225 101.299 167.422 101.523 167.577 101.8C167.737 102.072 167.817 102.413 167.817 102.824C167.817 103.171 167.734 103.525 167.569 103.888C167.404 104.245 167.105 104.547 166.673 104.792C166.241 105.037 165.625 105.16 164.825 105.16Z" fill="black"/>
<path d="M467.252 305.134C467.252 306.358 466.985 307.45 466.451 308.41C465.911 309.364 465.152 310.117 464.174 310.669C463.19 311.215 462.032 311.488 460.7 311.488C459.368 311.488 458.213 311.212 457.235 310.66C456.251 310.102 455.492 309.34 454.958 308.374C454.418 307.402 454.148 306.298 454.148 305.062C454.148 304.42 454.217 303.808 454.355 303.226C454.493 302.644 454.67 302.134 454.886 301.696L456.47 301.876C456.254 302.326 456.071 302.821 455.921 303.361C455.771 303.901 455.696 304.474 455.696 305.08C455.696 306.07 455.921 306.901 456.371 307.573C456.815 308.245 457.415 308.755 458.171 309.103C458.927 309.445 459.77 309.616 460.7 309.616C461.63 309.616 462.473 309.448 463.229 309.112C463.985 308.77 464.588 308.266 465.038 307.6C465.482 306.928 465.704 306.1 465.704 305.116C465.704 304.492 465.638 303.916 465.506 303.388C465.368 302.854 465.182 302.35 464.948 301.876L466.532 301.696C466.736 302.146 466.907 302.653 467.045 303.217C467.183 303.781 467.252 304.42 467.252 305.134ZM467.18 296.395C467.18 297.319 466.976 298.108 466.568 298.762C466.154 299.41 465.602 299.908 464.912 300.256C464.216 300.598 463.442 300.769 462.59 300.769C461.738 300.769 460.967 300.598 460.277 300.256C459.581 299.908 459.029 299.41 458.621 298.762C458.207 298.108 458 297.319 458 296.395C458 295.477 458.207 294.691 458.621 294.037C459.029 293.383 459.581 292.885 460.277 292.543C460.967 292.195 461.738 292.021 462.59 292.021C463.442 292.021 464.216 292.195 464.912 292.543C465.602 292.885 466.154 293.383 466.568 294.037C466.976 294.691 467.18 295.477 467.18 296.395ZM465.74 296.395C465.74 295.519 465.464 294.847 464.912 294.379C464.354 293.911 463.58 293.677 462.59 293.677C461.6 293.677 460.829 293.911 460.277 294.379C459.719 294.847 459.44 295.519 459.44 296.395C459.44 297.265 459.719 297.937 460.277 298.411C460.829 298.879 461.6 299.113 462.59 299.113C463.58 299.113 464.354 298.879 464.912 298.411C465.464 297.937 465.74 297.265 465.74 296.395ZM467 290.35L458.18 290.35L458.18 289.09L459.872 288.766L459.602 289.396C458.942 288.802 458.51 288.223 458.306 287.659C458.102 287.089 458 286.534 458 285.994C458 284.704 458.372 283.783 459.116 283.231C459.86 282.673 460.868 282.394 462.14 282.394L467 282.394L467 284.014L462.14 284.014C461.204 284.014 460.52 284.188 460.088 284.536C459.656 284.884 459.44 285.478 459.44 286.318C459.44 286.912 459.572 287.458 459.836 287.956C460.094 288.448 460.508 288.772 461.078 288.928L460.088 288.73L467 288.73L467 290.35ZM467.18 277.794C467.18 278.574 467.087 279.222 466.901 279.738C466.715 280.248 466.55 280.608 466.406 280.818L464.84 280.62C465.008 280.428 465.2 280.089 465.416 279.603C465.632 279.117 465.74 278.538 465.74 277.866C465.74 277.296 465.644 276.861 465.452 276.561C465.26 276.255 464.99 276.102 464.642 276.102C464.336 276.102 464.09 276.201 463.904 276.399C463.712 276.591 463.562 276.825 463.454 277.101C463.34 277.371 463.25 277.626 463.184 277.866C463.076 278.268 462.941 278.685 462.779 279.117C462.611 279.543 462.362 279.903 462.032 280.197C461.702 280.491 461.24 280.638 460.646 280.638C460.196 280.638 459.77 280.53 459.368 280.314C458.96 280.098 458.63 279.747 458.378 279.261C458.126 278.775 458 278.13 458 277.326C458 276.738 458.063 276.261 458.189 275.895C458.309 275.523 458.438 275.202 458.576 274.932L460.052 275.13C459.836 275.388 459.653 275.688 459.503 276.03C459.353 276.372 459.278 276.792 459.278 277.29C459.278 277.794 459.374 278.205 459.566 278.523C459.752 278.841 460.052 279 460.466 279C460.88 279 461.174 278.832 461.348 278.496C461.522 278.154 461.714 277.638 461.924 276.948C461.984 276.732 462.071 276.483 462.185 276.201C462.299 275.913 462.452 275.634 462.644 275.364C462.836 275.094 463.088 274.872 463.4 274.698C463.706 274.518 464.09 274.428 464.552 274.428C464.942 274.428 465.341 274.521 465.749 274.707C466.151 274.893 466.49 275.229 466.766 275.715C467.042 276.201 467.18 276.894 467.18 277.794ZM467.18 269.674C467.18 270.364 467.042 270.952 466.766 271.438C466.484 271.924 466.058 272.296 465.488 272.554C464.918 272.806 464.192 272.932 463.31 272.932L458.18 272.932L458.18 271.312L462.86 271.312C463.796 271.312 464.51 271.153 465.002 270.835C465.494 270.511 465.74 269.986 465.74 269.26C465.74 268.762 465.62 268.3 465.38 267.874C465.14 267.448 464.756 267.154 464.228 266.992L465.11 267.226L458.18 267.226L458.18 265.606L467 265.606L467 267.046L465.272 267.37L465.56 266.938C466.106 267.232 466.514 267.592 466.784 268.018C467.048 268.438 467.18 268.99 467.18 269.674ZM467 263.403L458.18 263.403L458.18 262.143L459.872 261.819L459.584 262.431C458.99 261.879 458.579 261.342 458.351 260.82C458.117 260.298 458 259.749 458 259.173C458 258.741 458.072 258.327 458.216 257.931C458.354 257.529 458.6 257.169 458.954 256.851C459.302 256.527 459.788 256.269 460.412 256.077L460.214 256.527C459.53 256.263 458.99 255.858 458.594 255.312C458.198 254.766 458 254.031 458 253.107C458 252.369 458.138 251.748 458.414 251.244C458.684 250.74 459.101 250.362 459.665 250.11C460.223 249.852 460.934 249.723 461.798 249.723L467 249.723L467 251.343L461.816 251.343C460.988 251.343 460.385 251.505 460.007 251.829C459.629 252.153 459.44 252.681 459.44 253.413C459.44 253.929 459.521 254.343 459.683 254.655C459.839 254.967 460.043 255.204 460.295 255.366C460.547 255.522 460.814 255.627 461.096 255.681C461.378 255.729 461.642 255.753 461.888 255.753L467 255.753L467 257.373L462.14 257.373C461.42 257.373 460.865 257.46 460.475 257.634C460.085 257.808 459.815 258.051 459.665 258.363C459.515 258.675 459.44 259.035 459.44 259.443C459.44 260.037 459.572 260.568 459.836 261.036C460.094 261.504 460.508 261.819 461.078 261.981L460.196 261.783L467 261.783L467 263.403ZM467.18 243.388C467.18 244.426 466.967 245.299 466.541 246.007C466.115 246.715 465.551 247.252 464.849 247.618C464.141 247.978 463.364 248.158 462.518 248.158C461.696 248.158 460.943 247.99 460.259 247.654C459.575 247.312 459.029 246.82 458.621 246.178C458.207 245.53 458 244.75 458 243.838C458 243.106 458.147 242.455 458.441 241.885C458.729 241.309 459.152 240.859 459.71 240.535C460.262 240.205 460.934 240.04 461.726 240.04C461.852 240.04 461.99 240.046 462.14 240.058C462.284 240.064 462.434 240.082 462.59 240.112L462.59 246.502C463.406 246.424 464.042 246.229 464.498 245.917C464.954 245.605 465.275 245.212 465.461 244.738C465.647 244.264 465.74 243.748 465.74 243.19C465.74 242.782 465.698 242.356 465.614 241.912C465.53 241.468 465.398 241.048 465.218 240.652L466.496 240.436C466.646 240.778 466.799 241.195 466.955 241.687C467.105 242.179 467.18 242.746 467.18 243.388ZM461.474 246.358L461.474 241.714C461.06 241.714 460.7 241.792 460.394 241.948C460.088 242.104 459.854 242.341 459.692 242.659C459.524 242.977 459.44 243.382 459.44 243.874C459.44 244.594 459.62 245.149 459.98 245.539C460.334 245.923 460.832 246.196 461.474 246.358ZM467 238.407L458.18 238.407L458.18 237.075L459.638 236.877C459.08 236.427 458.669 235.998 458.405 235.59C458.135 235.176 458 234.735 458 234.267C458 234.117 458.018 233.979 458.054 233.853L459.836 234.015C459.818 234.093 459.806 234.177 459.8 234.267C459.788 234.351 459.782 234.447 459.782 234.555C459.782 235.023 459.887 235.455 460.097 235.851C460.301 236.241 460.526 236.517 460.772 236.679L467 236.679L467 238.407Z" fill="black"/>
<path d="M218.84 208.28C217.48 208.28 216.267 207.983 215.2 207.39C214.14 206.79 213.303 205.947 212.69 204.86C212.083 203.767 211.78 202.48 211.78 201C211.78 199.52 212.087 198.237 212.7 197.15C213.32 196.057 214.167 195.213 215.24 194.62C216.32 194.02 217.547 193.72 218.92 193.72C219.633 193.72 220.313 193.797 220.96 193.95C221.607 194.103 222.173 194.3 222.66 194.54L222.46 196.3C221.96 196.06 221.41 195.857 220.81 195.69C220.21 195.523 219.573 195.44 218.9 195.44C217.8 195.44 216.877 195.69 216.13 196.19C215.383 196.683 214.817 197.35 214.43 198.19C214.05 199.03 213.86 199.967 213.86 201C213.86 202.033 214.047 202.97 214.42 203.81C214.8 204.65 215.36 205.32 216.1 205.82C216.847 206.313 217.767 206.56 218.86 206.56C219.553 206.56 220.193 206.487 220.78 206.34C221.373 206.187 221.933 205.98 222.46 205.72L222.66 207.48C222.16 207.707 221.597 207.897 220.97 208.05C220.343 208.203 219.633 208.28 218.84 208.28ZM228.551 208.2C227.524 208.2 226.647 207.973 225.921 207.52C225.201 207.06 224.647 206.447 224.261 205.68C223.881 204.907 223.691 204.047 223.691 203.1C223.691 202.153 223.881 201.297 224.261 200.53C224.647 199.757 225.201 199.143 225.921 198.69C226.647 198.23 227.524 198 228.551 198C229.571 198 230.444 198.23 231.171 198.69C231.897 199.143 232.451 199.757 232.831 200.53C233.217 201.297 233.411 202.153 233.411 203.1C233.411 204.047 233.217 204.907 232.831 205.68C232.451 206.447 231.897 207.06 231.171 207.52C230.444 207.973 229.571 208.2 228.551 208.2ZM228.551 206.6C229.524 206.6 230.271 206.293 230.791 205.68C231.311 205.06 231.571 204.2 231.571 203.1C231.571 202 231.311 201.143 230.791 200.53C230.271 199.91 229.524 199.6 228.551 199.6C227.584 199.6 226.837 199.91 226.311 200.53C225.791 201.143 225.531 202 225.531 203.1C225.531 204.2 225.791 205.06 226.311 205.68C226.837 206.293 227.584 206.6 228.551 206.6ZM235.267 208V198.2H236.667L237.027 200.08L236.327 199.78C236.987 199.047 237.63 198.567 238.257 198.34C238.89 198.113 239.507 198 240.107 198C241.54 198 242.564 198.413 243.177 199.24C243.797 200.067 244.107 201.187 244.107 202.6V208H242.307V202.6C242.307 201.56 242.114 200.8 241.727 200.32C241.34 199.84 240.68 199.6 239.747 199.6C239.087 199.6 238.48 199.747 237.927 200.04C237.38 200.327 237.02 200.787 236.847 201.42L237.067 200.32V208H235.267ZM249.663 208.2C249.043 208.2 248.546 208.087 248.173 207.86C247.799 207.633 247.526 207.343 247.353 206.99C247.186 206.63 247.103 206.253 247.103 205.86V199.6H245.423L245.583 198.2H247.103V195.78L248.903 195.6V198.2H251.483V199.6H248.903V204.76C248.903 205.387 248.939 205.84 249.013 206.12C249.086 206.4 249.266 206.577 249.553 206.65C249.846 206.723 250.316 206.76 250.963 206.76H251.423L251.283 208.2H249.663ZM253.021 208V198.2H254.501L254.721 199.82C255.221 199.2 255.697 198.743 256.151 198.45C256.611 198.15 257.101 198 257.621 198C257.787 198 257.941 198.02 258.081 198.06L257.901 200.04C257.814 200.02 257.721 200.007 257.621 200C257.527 199.987 257.421 199.98 257.301 199.98C256.781 199.98 256.301 200.097 255.861 200.33C255.427 200.557 255.121 200.807 254.941 201.08V208H253.021ZM261.492 208.2C260.886 208.2 260.356 208.077 259.902 207.83C259.449 207.583 259.096 207.247 258.842 206.82C258.596 206.393 258.472 205.907 258.472 205.36C258.472 204.807 258.592 204.333 258.832 203.94C259.079 203.54 259.406 203.21 259.812 202.95C260.226 202.683 260.686 202.473 261.192 202.32C261.699 202.16 262.222 202.047 262.762 201.98C263.309 201.907 263.832 201.867 264.332 201.86C264.332 200.927 264.149 200.317 263.782 200.03C263.416 199.743 262.886 199.6 262.192 199.6C261.826 199.6 261.432 199.657 261.012 199.77C260.599 199.883 260.132 200.12 259.612 200.48L259.352 199.02C259.746 198.72 260.236 198.477 260.822 198.29C261.409 198.097 262.026 198 262.672 198C263.499 198 264.166 198.147 264.672 198.44C265.179 198.727 265.549 199.213 265.782 199.9C266.016 200.587 266.132 201.52 266.132 202.7V204.7C266.132 205.167 266.152 205.553 266.192 205.86C266.239 206.16 266.339 206.387 266.492 206.54C266.652 206.687 266.906 206.76 267.252 206.76H267.432L267.152 208.2H267.012C266.432 208.2 265.982 208.143 265.662 208.03C265.349 207.917 265.109 207.753 264.942 207.54C264.776 207.327 264.626 207.067 264.492 206.76C264.126 207.187 263.692 207.533 263.192 207.8C262.692 208.067 262.126 208.2 261.492 208.2ZM261.832 206.76C262.312 206.76 262.776 206.64 263.222 206.4C263.676 206.16 264.046 205.84 264.332 205.44V203.1C263.379 203.133 262.606 203.227 262.012 203.38C261.426 203.533 260.996 203.763 260.722 204.07C260.449 204.377 260.312 204.773 260.312 205.26C260.312 205.787 260.452 206.17 260.732 206.41C261.019 206.643 261.386 206.76 261.832 206.76ZM273.322 208.2C272.215 208.2 271.285 207.977 270.532 207.53C269.785 207.077 269.218 206.47 268.832 205.71C268.452 204.943 268.262 204.093 268.262 203.16C268.262 202.187 268.445 201.31 268.812 200.53C269.185 199.75 269.755 199.133 270.522 198.68C271.288 198.227 272.268 198 273.462 198C273.975 198 274.458 198.053 274.912 198.16C275.372 198.26 275.782 198.4 276.142 198.58L275.862 200.16C275.495 199.987 275.105 199.85 274.692 199.75C274.285 199.65 273.862 199.6 273.422 199.6C272.342 199.6 271.518 199.907 270.952 200.52C270.385 201.133 270.102 201.987 270.102 203.08C270.102 204.147 270.372 205.003 270.912 205.65C271.452 206.297 272.275 206.62 273.382 206.62C273.835 206.62 274.268 206.567 274.682 206.46C275.102 206.353 275.502 206.207 275.882 206.02L276.122 207.46C275.855 207.647 275.465 207.817 274.952 207.97C274.438 208.123 273.895 208.2 273.322 208.2ZM281.284 208.2C280.664 208.2 280.167 208.087 279.794 207.86C279.42 207.633 279.147 207.343 278.974 206.99C278.807 206.63 278.724 206.253 278.724 205.86V199.6H277.044L277.204 198.2H278.724V195.78L280.524 195.6V198.2H283.104V199.6H280.524V204.76C280.524 205.387 280.56 205.84 280.634 206.12C280.707 206.4 280.887 206.577 281.174 206.65C281.467 206.723 281.937 206.76 282.584 206.76H283.044L282.904 208.2H281.284ZM288.844 208.2C287.817 208.2 286.94 207.973 286.214 207.52C285.494 207.06 284.94 206.447 284.554 205.68C284.174 204.907 283.984 204.047 283.984 203.1C283.984 202.153 284.174 201.297 284.554 200.53C284.94 199.757 285.494 199.143 286.214 198.69C286.94 198.23 287.817 198 288.844 198C289.864 198 290.737 198.23 291.464 198.69C292.19 199.143 292.744 199.757 293.124 200.53C293.51 201.297 293.704 202.153 293.704 203.1C293.704 204.047 293.51 204.907 293.124 205.68C292.744 206.447 292.19 207.06 291.464 207.52C290.737 207.973 289.864 208.2 288.844 208.2ZM288.844 206.6C289.817 206.6 290.564 206.293 291.084 205.68C291.604 205.06 291.864 204.2 291.864 203.1C291.864 202 291.604 201.143 291.084 200.53C290.564 199.91 289.817 199.6 288.844 199.6C287.877 199.6 287.13 199.91 286.604 200.53C286.084 201.143 285.824 202 285.824 203.1C285.824 204.2 286.084 205.06 286.604 205.68C287.13 206.293 287.877 206.6 288.844 206.6ZM295.56 208V198.2H297.04L297.26 199.82C297.76 199.2 298.237 198.743 298.69 198.45C299.15 198.15 299.64 198 300.16 198C300.327 198 300.48 198.02 300.62 198.06L300.44 200.04C300.353 200.02 300.26 200.007 300.16 200C300.067 199.987 299.96 199.98 299.84 199.98C299.32 199.98 298.84 200.097 298.4 200.33C297.967 200.557 297.66 200.807 297.48 201.08V208H295.56ZM304.668 208.2C303.801 208.2 303.081 208.097 302.508 207.89C301.941 207.683 301.541 207.5 301.308 207.34L301.528 205.6C301.741 205.787 302.118 206 302.658 206.24C303.198 206.48 303.841 206.6 304.588 206.6C305.221 206.6 305.705 206.493 306.038 206.28C306.378 206.067 306.548 205.767 306.548 205.38C306.548 205.04 306.438 204.767 306.218 204.56C306.005 204.347 305.745 204.18 305.438 204.06C305.138 203.933 304.855 203.833 304.588 203.76C304.141 203.64 303.678 203.49 303.198 203.31C302.725 203.123 302.325 202.847 301.998 202.48C301.671 202.113 301.508 201.6 301.508 200.94C301.508 200.44 301.628 199.967 301.868 199.52C302.108 199.067 302.498 198.7 303.038 198.42C303.578 198.14 304.295 198 305.188 198C305.841 198 306.371 198.07 306.778 198.21C307.191 198.343 307.548 198.487 307.848 198.64L307.628 200.28C307.341 200.04 307.008 199.837 306.628 199.67C306.248 199.503 305.781 199.42 305.228 199.42C304.668 199.42 304.211 199.527 303.858 199.74C303.505 199.947 303.328 200.28 303.328 200.74C303.328 201.2 303.515 201.527 303.888 201.72C304.268 201.913 304.841 202.127 305.608 202.36C305.848 202.427 306.125 202.523 306.438 202.65C306.758 202.777 307.068 202.947 307.368 203.16C307.668 203.373 307.915 203.653 308.108 204C308.308 204.34 308.408 204.767 308.408 205.28C308.408 205.713 308.305 206.157 308.098 206.61C307.891 207.057 307.518 207.433 306.978 207.74C306.438 208.047 305.668 208.2 304.668 208.2Z" fill="black"/>
<path d="M806.664 261.238C805.508 261.238 804.477 260.986 803.57 260.481C802.669 259.971 801.958 259.255 801.437 258.331C800.921 257.402 800.663 256.308 800.663 255.05C800.663 253.792 800.924 252.701 801.445 251.777C801.972 250.848 802.692 250.131 803.604 249.627C804.522 249.117 805.565 248.862 806.732 248.862C807.338 248.862 807.916 248.927 808.466 249.057C809.016 249.188 809.497 249.355 809.911 249.559L809.741 251.055C809.316 250.851 808.849 250.678 808.339 250.536C807.829 250.395 807.287 250.324 806.715 250.324C805.78 250.324 804.995 250.536 804.361 250.961C803.726 251.381 803.244 251.947 802.916 252.661C802.593 253.375 802.431 254.172 802.431 255.05C802.431 255.928 802.59 256.724 802.907 257.438C803.23 258.152 803.706 258.722 804.335 259.147C804.97 259.566 805.752 259.776 806.681 259.776C807.27 259.776 807.814 259.714 808.313 259.589C808.817 259.459 809.293 259.283 809.741 259.062L809.911 260.558C809.486 260.751 809.007 260.912 808.475 261.043C807.942 261.173 807.338 261.238 806.664 261.238ZM814.918 261.17C814.045 261.17 813.3 260.977 812.683 260.592C812.071 260.201 811.6 259.68 811.272 259.028C810.949 258.371 810.787 257.64 810.787 256.835C810.787 256.03 810.949 255.302 811.272 254.65C811.6 253.993 812.071 253.472 812.683 253.086C813.3 252.695 814.045 252.5 814.918 252.5C815.785 252.5 816.527 252.695 817.145 253.086C817.763 253.472 818.233 253.993 818.556 254.65C818.885 255.302 819.049 256.03 819.049 256.835C819.049 257.64 818.885 258.371 818.556 259.028C818.233 259.68 817.763 260.201 817.145 260.592C816.527 260.977 815.785 261.17 814.918 261.17ZM814.918 259.81C815.745 259.81 816.38 259.549 816.822 259.028C817.264 258.501 817.485 257.77 817.485 256.835C817.485 255.9 817.264 255.172 816.822 254.65C816.38 254.123 815.745 253.86 814.918 253.86C814.096 253.86 813.462 254.123 813.014 254.65C812.572 255.172 812.351 255.9 812.351 256.835C812.351 257.77 812.572 258.501 813.014 259.028C813.462 259.549 814.096 259.81 814.918 259.81ZM820.627 261V252.67H821.817L822.123 254.268L821.528 254.013C822.089 253.39 822.636 252.982 823.168 252.789C823.707 252.596 824.231 252.5 824.741 252.5C825.959 252.5 826.829 252.851 827.35 253.554C827.877 254.257 828.141 255.209 828.141 256.41V261H826.611V256.41C826.611 255.526 826.447 254.88 826.118 254.472C825.789 254.064 825.228 253.86 824.435 253.86C823.874 253.86 823.358 253.985 822.888 254.234C822.423 254.478 822.117 254.869 821.97 255.407L822.157 254.472V261H820.627ZM832.486 261.17C831.749 261.17 831.137 261.082 830.65 260.906C830.168 260.731 829.828 260.575 829.63 260.439L829.817 258.96C829.998 259.119 830.318 259.3 830.777 259.504C831.236 259.708 831.783 259.81 832.418 259.81C832.956 259.81 833.367 259.719 833.65 259.538C833.939 259.357 834.084 259.102 834.084 258.773C834.084 258.484 833.99 258.252 833.803 258.076C833.622 257.895 833.401 257.753 833.14 257.651C832.885 257.543 832.645 257.458 832.418 257.396C832.038 257.294 831.644 257.166 831.236 257.013C830.834 256.855 830.494 256.62 830.216 256.308C829.939 255.996 829.8 255.56 829.8 254.999C829.8 254.574 829.902 254.172 830.106 253.792C830.31 253.407 830.641 253.095 831.1 252.857C831.559 252.619 832.169 252.5 832.928 252.5C833.483 252.5 833.934 252.559 834.279 252.678C834.631 252.792 834.934 252.914 835.189 253.044L835.002 254.438C834.758 254.234 834.475 254.061 834.152 253.919C833.829 253.778 833.432 253.707 832.962 253.707C832.486 253.707 832.098 253.798 831.797 253.979C831.497 254.155 831.347 254.438 831.347 254.829C831.347 255.22 831.506 255.498 831.823 255.662C832.146 255.826 832.633 256.008 833.285 256.206C833.489 256.263 833.724 256.345 833.99 256.452C834.262 256.56 834.526 256.705 834.781 256.886C835.036 257.067 835.246 257.305 835.41 257.6C835.58 257.889 835.665 258.252 835.665 258.688C835.665 259.056 835.577 259.433 835.401 259.818C835.226 260.198 834.908 260.518 834.449 260.779C833.99 261.04 833.336 261.17 832.486 261.17ZM840.035 261.17C839.508 261.17 839.086 261.074 838.769 260.881C838.451 260.688 838.219 260.442 838.072 260.141C837.93 259.835 837.859 259.515 837.859 259.181V253.86H836.431L836.567 252.67H837.859V250.613L839.389 250.46V252.67H841.582V253.86H839.389V258.246C839.389 258.779 839.42 259.164 839.483 259.402C839.545 259.64 839.698 259.79 839.942 259.852C840.191 259.915 840.59 259.946 841.14 259.946H841.531L841.412 261.17H840.035ZM842.89 261V252.67H844.148L844.335 254.047C844.76 253.52 845.165 253.132 845.55 252.882C845.941 252.627 846.358 252.5 846.8 252.5C846.941 252.5 847.072 252.517 847.191 252.551L847.038 254.234C846.964 254.217 846.885 254.206 846.8 254.2C846.72 254.189 846.63 254.183 846.528 254.183C846.086 254.183 845.678 254.282 845.304 254.48C844.935 254.673 844.675 254.886 844.522 255.118V261H842.89ZM851.26 261.17C850.609 261.17 850.053 261.04 849.594 260.779C849.135 260.513 848.784 260.11 848.54 259.572C848.302 259.034 848.183 258.348 848.183 257.515V252.67H849.713V257.09C849.713 257.974 849.864 258.648 850.164 259.113C850.47 259.578 850.966 259.81 851.651 259.81C852.122 259.81 852.558 259.697 852.96 259.47C853.363 259.243 853.64 258.881 853.793 258.382L853.572 259.215V252.67H855.102V261H853.742L853.436 259.368L853.844 259.64C853.567 260.156 853.227 260.541 852.824 260.796C852.428 261.045 851.906 261.17 851.26 261.17ZM861.008 261.17C860.068 261.17 859.277 260.98 858.637 260.6C858.002 260.215 857.521 259.699 857.192 259.053C856.869 258.402 856.707 257.679 856.707 256.886C856.707 256.059 856.863 255.313 857.175 254.65C857.492 253.987 857.977 253.463 858.628 253.078C859.28 252.693 860.113 252.5 861.127 252.5C861.564 252.5 861.975 252.545 862.36 252.636C862.751 252.721 863.099 252.84 863.405 252.993L863.167 254.336C862.856 254.189 862.524 254.072 862.173 253.987C861.827 253.902 861.467 253.86 861.093 253.86C860.175 253.86 859.476 254.121 858.994 254.642C858.512 255.163 858.271 255.889 858.271 256.818C858.271 257.725 858.501 258.453 858.96 259.002C859.419 259.552 860.119 259.827 861.059 259.827C861.445 259.827 861.813 259.782 862.164 259.691C862.521 259.6 862.861 259.476 863.184 259.317L863.388 260.541C863.162 260.7 862.83 260.844 862.394 260.974C861.958 261.105 861.496 261.17 861.008 261.17ZM867.776 261.17C867.249 261.17 866.827 261.074 866.51 260.881C866.192 260.688 865.96 260.442 865.813 260.141C865.671 259.835 865.6 259.515 865.6 259.181V253.86H864.172L864.308 252.67H865.6V250.613L867.13 250.46V252.67H869.323V253.86H867.13V258.246C867.13 258.779 867.161 259.164 867.224 259.402C867.286 259.64 867.439 259.79 867.683 259.852C867.932 259.915 868.332 259.946 868.881 259.946H869.272L869.153 261.17H867.776ZM870.631 261V252.67H872.161V261H870.631ZM870.631 250.8V249.1H872.161V250.8H870.631ZM877.871 261.17C876.999 261.17 876.253 260.977 875.636 260.592C875.024 260.201 874.553 259.68 874.225 259.028C873.902 258.371 873.74 257.64 873.74 256.835C873.74 256.03 873.902 255.302 874.225 254.65C874.553 253.993 875.024 253.472 875.636 253.086C876.253 252.695 876.999 252.5 877.871 252.5C878.738 252.5 879.481 252.695 880.098 253.086C880.716 253.472 881.186 253.993 881.509 254.65C881.838 255.302 882.002 256.03 882.002 256.835C882.002 257.64 881.838 258.371 881.509 259.028C881.186 259.68 880.716 260.201 880.098 260.592C879.481 260.977 878.738 261.17 877.871 261.17ZM877.871 259.81C878.699 259.81 879.333 259.549 879.775 259.028C880.217 258.501 880.438 257.77 880.438 256.835C880.438 255.9 880.217 255.172 879.775 254.65C879.333 254.123 878.699 253.86 877.871 253.86C877.05 253.86 876.415 254.123 875.967 254.65C875.525 255.172 875.304 255.9 875.304 256.835C875.304 257.77 875.525 258.501 875.967 259.028C876.415 259.549 877.05 259.81 877.871 259.81ZM883.58 261V252.67H884.77L885.076 254.268L884.481 254.013C885.042 253.39 885.589 252.982 886.121 252.789C886.66 252.596 887.184 252.5 887.694 252.5C888.912 252.5 889.782 252.851 890.303 253.554C890.83 254.257 891.094 255.209 891.094 256.41V261H889.564V256.41C889.564 255.526 889.4 254.88 889.071 254.472C888.742 254.064 888.181 253.86 887.388 253.86C886.827 253.86 886.311 253.985 885.841 254.234C885.376 254.478 885.07 254.869 884.923 255.407L885.11 254.472V261H883.58ZM902.521 261.238C901.365 261.238 900.334 260.986 899.427 260.481C898.526 259.971 897.815 259.255 897.294 258.331C896.778 257.402 896.52 256.308 896.52 255.05C896.52 253.792 896.781 252.701 897.302 251.777C897.829 250.848 898.549 250.131 899.461 249.627C900.379 249.117 901.422 248.862 902.589 248.862C903.196 248.862 903.774 248.927 904.323 249.057C904.873 249.188 905.355 249.355 905.768 249.559L905.598 251.055C905.173 250.851 904.706 250.678 904.196 250.536C903.686 250.395 903.145 250.324 902.572 250.324C901.637 250.324 900.853 250.536 900.218 250.961C899.583 251.381 899.102 251.947 898.773 252.661C898.45 253.375 898.288 254.172 898.288 255.05C898.288 255.928 898.447 256.724 898.764 257.438C899.087 258.152 899.563 258.722 900.192 259.147C900.827 259.566 901.609 259.776 902.538 259.776C903.128 259.776 903.672 259.714 904.17 259.589C904.675 259.459 905.151 259.283 905.598 259.062L905.768 260.558C905.343 260.751 904.865 260.912 904.332 261.043C903.799 261.173 903.196 261.238 902.521 261.238ZM910.776 261.17C909.903 261.17 909.158 260.977 908.54 260.592C907.928 260.201 907.458 259.68 907.129 259.028C906.806 258.371 906.645 257.64 906.645 256.835C906.645 256.03 906.806 255.302 907.129 254.65C907.458 253.993 907.928 253.472 908.54 253.086C909.158 252.695 909.903 252.5 910.776 252.5C911.643 252.5 912.385 252.695 913.003 253.086C913.62 253.472 914.091 253.993 914.414 254.65C914.742 255.302 914.907 256.03 914.907 256.835C914.907 257.64 914.742 258.371 914.414 259.028C914.091 259.68 913.62 260.201 913.003 260.592C912.385 260.977 911.643 261.17 910.776 261.17ZM910.776 259.81C911.603 259.81 912.238 259.549 912.68 259.028C913.122 258.501 913.343 257.77 913.343 256.835C913.343 255.9 913.122 255.172 912.68 254.65C912.238 254.123 911.603 253.86 910.776 253.86C909.954 253.86 909.319 254.123 908.872 254.65C908.43 255.172 908.209 255.9 908.209 256.835C908.209 257.77 908.43 258.501 908.872 259.028C909.319 259.549 909.954 259.81 910.776 259.81ZM916.484 261V252.67H917.674L917.98 254.268L917.402 253.996C917.924 253.435 918.431 253.047 918.924 252.831C919.417 252.61 919.935 252.5 920.479 252.5C920.887 252.5 921.278 252.568 921.652 252.704C922.032 252.834 922.372 253.067 922.672 253.401C922.978 253.73 923.222 254.189 923.403 254.778L922.978 254.591C923.228 253.945 923.61 253.435 924.126 253.061C924.641 252.687 925.336 252.5 926.208 252.5C926.905 252.5 927.492 252.63 927.968 252.891C928.444 253.146 928.801 253.54 929.039 254.072C929.282 254.599 929.404 255.271 929.404 256.087V261H927.874V256.104C927.874 255.322 927.721 254.752 927.415 254.395C927.109 254.038 926.611 253.86 925.919 253.86C925.432 253.86 925.041 253.936 924.746 254.089C924.452 254.237 924.228 254.429 924.075 254.667C923.927 254.905 923.828 255.158 923.777 255.424C923.732 255.69 923.709 255.94 923.709 256.172V261H922.179V256.41C922.179 255.73 922.097 255.206 921.933 254.837C921.768 254.469 921.539 254.214 921.244 254.072C920.95 253.931 920.61 253.86 920.224 253.86C919.663 253.86 919.162 253.985 918.72 254.234C918.278 254.478 917.98 254.869 917.827 255.407L918.014 254.574V261H916.484ZM931.392 265.114V252.67H932.582L932.854 254.574L932.429 254.268C932.781 253.724 933.214 253.293 933.73 252.976C934.246 252.659 934.877 252.5 935.625 252.5C936.385 252.5 937.036 252.693 937.58 253.078C938.124 253.463 938.541 253.985 938.83 254.642C939.119 255.294 939.263 256.025 939.263 256.835C939.263 257.645 939.127 258.379 938.855 259.036C938.583 259.688 938.178 260.207 937.64 260.592C937.102 260.977 936.43 261.17 935.625 261.17C934.962 261.17 934.362 261.034 933.823 260.762C933.291 260.484 932.905 260.071 932.667 259.521L932.922 259.215V265.114H931.392ZM935.336 259.81C936.079 259.81 936.657 259.549 937.07 259.028C937.49 258.501 937.699 257.77 937.699 256.835C937.699 255.9 937.49 255.172 937.07 254.65C936.657 254.123 936.079 253.86 935.336 253.86C934.877 253.86 934.458 253.97 934.078 254.191C933.704 254.407 933.404 254.735 933.177 255.177C932.951 255.614 932.837 256.166 932.837 256.835C932.837 257.532 932.951 258.099 933.177 258.535C933.404 258.971 933.704 259.294 934.078 259.504C934.458 259.708 934.877 259.81 935.336 259.81ZM942.793 261.17C942.278 261.17 941.827 261.065 941.442 260.855C941.057 260.646 940.756 260.36 940.541 259.997C940.331 259.634 940.226 259.221 940.226 258.756C940.226 258.286 940.328 257.883 940.532 257.549C940.742 257.209 941.02 256.928 941.365 256.708C941.717 256.481 942.108 256.302 942.538 256.172C942.969 256.036 943.414 255.94 943.873 255.883C944.338 255.821 944.782 255.787 945.207 255.781C945.207 254.988 945.052 254.469 944.74 254.225C944.428 253.982 943.978 253.86 943.388 253.86C943.077 253.86 942.742 253.908 942.385 254.004C942.034 254.101 941.637 254.302 941.195 254.608L940.974 253.367C941.309 253.112 941.725 252.905 942.224 252.746C942.723 252.582 943.247 252.5 943.796 252.5C944.499 252.5 945.066 252.625 945.496 252.874C945.927 253.118 946.242 253.531 946.44 254.115C946.638 254.699 946.737 255.492 946.737 256.495V258.195C946.737 258.592 946.754 258.92 946.788 259.181C946.828 259.436 946.913 259.629 947.043 259.759C947.179 259.884 947.395 259.946 947.689 259.946H947.842L947.604 261.17H947.485C946.992 261.17 946.61 261.122 946.338 261.026C946.072 260.929 945.868 260.79 945.726 260.609C945.584 260.428 945.457 260.207 945.343 259.946C945.032 260.309 944.663 260.603 944.238 260.83C943.813 261.057 943.332 261.17 942.793 261.17ZM943.082 259.946C943.49 259.946 943.884 259.844 944.264 259.64C944.649 259.436 944.964 259.164 945.207 258.824V256.835C944.397 256.863 943.74 256.943 943.235 257.073C942.737 257.203 942.371 257.399 942.139 257.659C941.907 257.92 941.79 258.257 941.79 258.671C941.79 259.119 941.909 259.444 942.147 259.648C942.391 259.847 942.703 259.946 943.082 259.946ZM949.023 261V252.67H950.213L950.519 254.268L949.924 254.013C950.485 253.39 951.032 252.982 951.565 252.789C952.103 252.596 952.627 252.5 953.137 252.5C954.356 252.5 955.225 252.851 955.747 253.554C956.274 254.257 956.537 255.209 956.537 256.41V261H955.007V256.41C955.007 255.526 954.843 254.88 954.514 254.472C954.186 254.064 953.625 253.86 952.831 253.86C952.27 253.86 951.755 253.985 951.284 254.234C950.82 254.478 950.514 254.869 950.366 255.407L950.553 254.472V261H949.023ZM958.519 261V252.67H960.049V261H958.519ZM958.519 250.8V249.1H960.049V250.8H958.519ZM966.117 261.17C965.137 261.17 964.312 260.969 963.643 260.566C962.975 260.164 962.468 259.631 962.122 258.968C961.782 258.3 961.612 257.566 961.612 256.767C961.612 255.991 961.771 255.279 962.088 254.633C962.411 253.987 962.876 253.472 963.482 253.086C964.094 252.695 964.831 252.5 965.692 252.5C966.383 252.5 966.998 252.639 967.536 252.916C968.08 253.188 968.505 253.588 968.811 254.115C969.123 254.636 969.279 255.271 969.279 256.019C969.279 256.138 969.273 256.268 969.262 256.41C969.256 256.546 969.239 256.688 969.211 256.835H963.176C963.25 257.606 963.434 258.206 963.728 258.637C964.023 259.068 964.394 259.371 964.842 259.546C965.29 259.722 965.777 259.81 966.304 259.81C966.689 259.81 967.092 259.77 967.511 259.691C967.93 259.612 968.327 259.487 968.701 259.317L968.905 260.524C968.582 260.666 968.188 260.81 967.723 260.957C967.259 261.099 966.723 261.17 966.117 261.17ZM963.312 255.781H967.698C967.698 255.39 967.624 255.05 967.477 254.761C967.33 254.472 967.106 254.251 966.805 254.098C966.505 253.939 966.123 253.86 965.658 253.86C964.978 253.86 964.454 254.03 964.085 254.37C963.723 254.704 963.465 255.175 963.312 255.781ZM973.184 261.17C972.448 261.17 971.836 261.082 971.348 260.906C970.867 260.731 970.527 260.575 970.328 260.439L970.515 258.96C970.697 259.119 971.017 259.3 971.476 259.504C971.935 259.708 972.482 259.81 973.116 259.81C973.655 259.81 974.065 259.719 974.349 259.538C974.638 259.357 974.782 259.102 974.782 258.773C974.782 258.484 974.689 258.252 974.502 258.076C974.32 257.895 974.099 257.753 973.839 257.651C973.584 257.543 973.343 257.458 973.116 257.396C972.737 257.294 972.343 257.166 971.935 257.013C971.532 256.855 971.192 256.62 970.915 256.308C970.637 255.996 970.498 255.56 970.498 254.999C970.498 254.574 970.6 254.172 970.804 253.792C971.008 253.407 971.34 253.095 971.799 252.857C972.258 252.619 972.867 252.5 973.626 252.5C974.182 252.5 974.632 252.559 974.978 252.678C975.329 252.792 975.632 252.914 975.887 253.044L975.7 254.438C975.457 254.234 975.173 254.061 974.85 253.919C974.527 253.778 974.131 253.707 973.66 253.707C973.184 253.707 972.796 253.798 972.496 253.979C972.195 254.155 972.045 254.438 972.045 254.829C972.045 255.22 972.204 255.498 972.521 255.662C972.844 255.826 973.332 256.008 973.983 256.206C974.187 256.263 974.422 256.345 974.689 256.452C974.961 256.56 975.224 256.705 975.479 256.886C975.734 257.067 975.944 257.305 976.108 257.6C976.278 257.889 976.363 258.252 976.363 258.688C976.363 259.056 976.275 259.433 976.1 259.818C975.924 260.198 975.607 260.518 975.148 260.779C974.689 261.04 974.034 261.17 973.184 261.17Z" fill="black"/>
<path d="M528.864 200L530.556 187.4H532.014L535.326 193.646L538.602 187.4H540.078L541.752 200H539.952L538.674 189.722L539.124 189.794L535.344 197.012L531.492 189.794L531.942 189.722L530.664 200H528.864ZM547.724 200.18C546.686 200.18 545.813 199.967 545.105 199.541C544.397 199.115 543.86 198.551 543.494 197.849C543.134 197.141 542.954 196.364 542.954 195.518C542.954 194.696 543.122 193.943 543.458 193.259C543.8 192.575 544.292 192.029 544.934 191.621C545.582 191.207 546.362 191 547.274 191C548.006 191 548.657 191.147 549.227 191.441C549.803 191.729 550.253 192.152 550.577 192.71C550.907 193.262 551.072 193.934 551.072 194.726C551.072 194.852 551.066 194.99 551.054 195.14C551.048 195.284 551.03 195.434 551 195.59H544.61C544.688 196.406 544.883 197.042 545.195 197.498C545.507 197.954 545.9 198.275 546.374 198.461C546.848 198.647 547.364 198.74 547.922 198.74C548.33 198.74 548.756 198.698 549.2 198.614C549.644 198.53 550.064 198.398 550.46 198.218L550.676 199.496C550.334 199.646 549.917 199.799 549.425 199.955C548.933 200.105 548.366 200.18 547.724 200.18ZM544.754 194.474H549.398C549.398 194.06 549.32 193.7 549.164 193.394C549.008 193.088 548.771 192.854 548.453 192.692C548.135 192.524 547.73 192.44 547.238 192.44C546.518 192.44 545.963 192.62 545.573 192.98C545.189 193.334 544.916 193.832 544.754 194.474ZM555.747 200.18C555.189 200.18 554.742 200.078 554.406 199.874C554.07 199.67 553.824 199.409 553.668 199.091C553.518 198.767 553.443 198.428 553.443 198.074V192.44H551.931L552.075 191.18H553.443V189.002L555.063 188.84V191.18H557.385V192.44H555.063V197.084C555.063 197.648 555.096 198.056 555.162 198.308C555.228 198.56 555.39 198.719 555.648 198.785C555.912 198.851 556.335 198.884 556.917 198.884H557.331L557.205 200.18H555.747ZM558.77 200V191.18H560.102L560.3 192.638C560.75 192.08 561.179 191.669 561.587 191.405C562.001 191.135 562.442 191 562.91 191C563.06 191 563.198 191.018 563.324 191.054L563.162 192.836C563.084 192.818 563 192.806 562.91 192.8C562.826 192.788 562.73 192.782 562.622 192.782C562.154 192.782 561.722 192.887 561.326 193.097C560.936 193.301 560.66 193.526 560.498 193.772V200H558.77ZM564.465 200V191.18H566.085V200H564.465ZM564.465 189.2V187.4H566.085V189.2H564.465ZM570.332 200.18C569.786 200.18 569.309 200.069 568.901 199.847C568.493 199.625 568.175 199.322 567.947 198.938C567.725 198.554 567.614 198.116 567.614 197.624C567.614 197.126 567.722 196.7 567.938 196.346C568.16 195.986 568.454 195.689 568.82 195.455C569.192 195.215 569.606 195.026 570.062 194.888C570.518 194.744 570.989 194.642 571.475 194.582C571.967 194.516 572.438 194.48 572.888 194.474C572.888 193.634 572.723 193.085 572.393 192.827C572.063 192.569 571.586 192.44 570.962 192.44C570.632 192.44 570.278 192.491 569.9 192.593C569.528 192.695 569.108 192.908 568.64 193.232L568.406 191.918C568.76 191.648 569.201 191.429 569.729 191.261C570.257 191.087 570.812 191 571.394 191C572.138 191 572.738 191.132 573.194 191.396C573.65 191.654 573.983 192.092 574.193 192.71C574.403 193.328 574.508 194.168 574.508 195.23V197.03C574.508 197.45 574.526 197.798 574.562 198.074C574.604 198.344 574.694 198.548 574.832 198.686C574.976 198.818 575.204 198.884 575.516 198.884H575.678L575.426 200.18H575.3C574.778 200.18 574.373 200.129 574.085 200.027C573.803 199.925 573.587 199.778 573.437 199.586C573.287 199.394 573.152 199.16 573.032 198.884C572.702 199.268 572.312 199.58 571.862 199.82C571.412 200.06 570.902 200.18 570.332 200.18ZM570.638 198.884C571.07 198.884 571.487 198.776 571.889 198.56C572.297 198.344 572.63 198.056 572.888 197.696V195.59C572.03 195.62 571.334 195.704 570.8 195.842C570.272 195.98 569.885 196.187 569.639 196.463C569.393 196.739 569.27 197.096 569.27 197.534C569.27 198.008 569.396 198.353 569.648 198.569C569.906 198.779 570.236 198.884 570.638 198.884ZM579.196 200.18C578.626 200.18 578.173 200.078 577.837 199.874C577.507 199.664 577.27 199.397 577.126 199.073C576.982 198.749 576.91 198.41 576.91 198.056V186.5H578.53V197.12C578.53 197.624 578.563 198.002 578.629 198.254C578.695 198.506 578.827 198.674 579.025 198.758C579.229 198.842 579.538 198.884 579.952 198.884L579.718 200.18H579.196ZM589.167 200.252C588.645 200.252 588.123 200.213 587.601 200.135C587.079 200.057 586.596 199.958 586.152 199.838C585.708 199.712 585.339 199.58 585.045 199.442L585.279 197.624C585.603 197.78 585.993 197.942 586.449 198.11C586.911 198.278 587.409 198.419 587.943 198.533C588.477 198.647 589.017 198.704 589.563 198.704C590.373 198.704 591.015 198.557 591.489 198.263C591.969 197.963 592.209 197.498 592.209 196.868C592.209 196.394 592.089 196.007 591.849 195.707C591.609 195.401 591.246 195.14 590.76 194.924C590.28 194.708 589.677 194.492 588.951 194.276C588.261 194.072 587.625 193.832 587.043 193.556C586.461 193.274 585.993 192.899 585.639 192.431C585.291 191.957 585.117 191.33 585.117 190.55C585.117 189.884 585.288 189.296 585.63 188.786C585.978 188.27 586.485 187.868 587.151 187.58C587.823 187.292 588.645 187.148 589.617 187.148C590.445 187.148 591.204 187.238 591.894 187.418C592.59 187.598 593.163 187.796 593.613 188.012L593.433 189.83C592.749 189.422 592.095 189.131 591.471 188.957C590.853 188.783 590.211 188.696 589.545 188.696C588.807 188.696 588.195 188.834 587.709 189.11C587.229 189.386 586.989 189.836 586.989 190.46C586.989 190.88 587.097 191.225 587.313 191.495C587.529 191.759 587.85 191.987 588.276 192.179C588.702 192.365 589.233 192.554 589.869 192.746C590.745 193.01 591.498 193.313 592.128 193.655C592.758 193.991 593.241 194.408 593.577 194.906C593.913 195.398 594.081 196.01 594.081 196.742C594.081 197.282 593.979 197.768 593.775 198.2C593.571 198.632 593.265 199.001 592.857 199.307C592.449 199.613 591.936 199.847 591.318 200.009C590.706 200.171 589.989 200.252 589.167 200.252ZM598.799 200.18C598.109 200.18 597.521 200.042 597.035 199.766C596.549 199.484 596.177 199.058 595.919 198.488C595.667 197.918 595.541 197.192 595.541 196.31V191.18H597.161V195.86C597.161 196.796 597.32 197.51 597.638 198.002C597.962 198.494 598.487 198.74 599.213 198.74C599.711 198.74 600.173 198.62 600.599 198.38C601.025 198.14 601.319 197.756 601.481 197.228L601.247 198.11V191.18H602.867V200H601.427L601.103 198.272L601.535 198.56C601.241 199.106 600.881 199.514 600.455 199.784C600.035 200.048 599.483 200.18 598.799 200.18ZM605.071 204.356V191.18H606.331L606.619 193.196L606.169 192.872C606.541 192.296 607 191.84 607.546 191.504C608.092 191.168 608.761 191 609.553 191C610.357 191 611.047 191.204 611.623 191.612C612.199 192.02 612.64 192.572 612.946 193.268C613.252 193.958 613.405 194.732 613.405 195.59C613.405 196.448 613.261 197.225 612.973 197.921C612.685 198.611 612.256 199.16 611.686 199.568C611.116 199.976 610.405 200.18 609.553 200.18C608.851 200.18 608.215 200.036 607.645 199.748C607.081 199.454 606.673 199.016 606.421 198.434L606.691 198.11V204.356H605.071ZM609.247 198.74C610.033 198.74 610.645 198.464 611.083 197.912C611.527 197.354 611.749 196.58 611.749 195.59C611.749 194.6 611.527 193.829 611.083 193.277C610.645 192.719 610.033 192.44 609.247 192.44C608.761 192.44 608.317 192.557 607.915 192.791C607.519 193.019 607.201 193.367 606.961 193.835C606.721 194.297 606.601 194.882 606.601 195.59C606.601 196.328 606.721 196.928 606.961 197.39C607.201 197.852 607.519 198.194 607.915 198.416C608.317 198.632 608.761 198.74 609.247 198.74ZM615.09 204.356V191.18H616.35L616.638 193.196L616.188 192.872C616.56 192.296 617.019 191.84 617.565 191.504C618.111 191.168 618.78 191 619.572 191C620.376 191 621.066 191.204 621.642 191.612C622.218 192.02 622.659 192.572 622.965 193.268C623.271 193.958 623.424 194.732 623.424 195.59C623.424 196.448 623.28 197.225 622.992 197.921C622.704 198.611 622.275 199.16 621.705 199.568C621.135 199.976 620.424 200.18 619.572 200.18C618.87 200.18 618.234 200.036 617.664 199.748C617.1 199.454 616.692 199.016 616.44 198.434L616.71 198.11V204.356H615.09ZM619.266 198.74C620.052 198.74 620.664 198.464 621.102 197.912C621.546 197.354 621.768 196.58 621.768 195.59C621.768 194.6 621.546 193.829 621.102 193.277C620.664 192.719 620.052 192.44 619.266 192.44C618.78 192.44 618.336 192.557 617.934 192.791C617.538 193.019 617.22 193.367 616.98 193.835C616.74 194.297 616.62 194.882 616.62 195.59C616.62 196.328 616.74 196.928 616.98 197.39C617.22 197.852 617.538 198.194 617.934 198.416C618.336 198.632 618.78 198.74 619.266 198.74ZM627.378 200.18C626.808 200.18 626.355 200.078 626.019 199.874C625.689 199.664 625.452 199.397 625.308 199.073C625.164 198.749 625.092 198.41 625.092 198.056V186.5H626.712V197.12C626.712 197.624 626.745 198.002 626.811 198.254C626.877 198.506 627.009 198.674 627.207 198.758C627.411 198.842 627.72 198.884 628.134 198.884L627.9 200.18H627.378ZM629.364 200V191.18H630.984V200H629.364ZM629.364 189.2V187.4H630.984V189.2H629.364ZM637.408 200.18C636.37 200.18 635.497 199.967 634.789 199.541C634.081 199.115 633.544 198.551 633.178 197.849C632.818 197.141 632.638 196.364 632.638 195.518C632.638 194.696 632.806 193.943 633.142 193.259C633.484 192.575 633.976 192.029 634.618 191.621C635.266 191.207 636.046 191 636.958 191C637.69 191 638.341 191.147 638.911 191.441C639.487 191.729 639.937 192.152 640.261 192.71C640.591 193.262 640.756 193.934 640.756 194.726C640.756 194.852 640.75 194.99 640.738 195.14C640.732 195.284 640.714 195.434 640.684 195.59H634.294C634.372 196.406 634.567 197.042 634.879 197.498C635.191 197.954 635.584 198.275 636.058 198.461C636.532 198.647 637.048 198.74 637.606 198.74C638.014 198.74 638.44 198.698 638.884 198.614C639.328 198.53 639.748 198.398 640.144 198.218L640.36 199.496C640.018 199.646 639.601 199.799 639.109 199.955C638.617 200.105 638.05 200.18 637.408 200.18ZM634.438 194.474H639.082C639.082 194.06 639.004 193.7 638.848 193.394C638.692 193.088 638.455 192.854 638.137 192.692C637.819 192.524 637.414 192.44 636.922 192.44C636.202 192.44 635.647 192.62 635.257 192.98C634.873 193.334 634.6 193.832 634.438 194.474ZM642.389 200V191.18H643.721L643.919 192.638C644.369 192.08 644.798 191.669 645.206 191.405C645.62 191.135 646.061 191 646.529 191C646.679 191 646.817 191.018 646.943 191.054L646.781 192.836C646.703 192.818 646.619 192.806 646.529 192.8C646.445 192.788 646.349 192.782 646.241 192.782C645.773 192.782 645.341 192.887 644.945 193.097C644.555 193.301 644.279 193.526 644.117 193.772V200H642.389ZM650.586 200.18C649.806 200.18 649.158 200.087 648.642 199.901C648.132 199.715 647.772 199.55 647.562 199.406L647.76 197.84C647.952 198.008 648.291 198.2 648.777 198.416C649.263 198.632 649.842 198.74 650.514 198.74C651.084 198.74 651.519 198.644 651.819 198.452C652.125 198.26 652.278 197.99 652.278 197.642C652.278 197.336 652.179 197.09 651.981 196.904C651.789 196.712 651.555 196.562 651.279 196.454C651.009 196.34 650.754 196.25 650.514 196.184C650.112 196.076 649.695 195.941 649.263 195.779C648.837 195.611 648.477 195.362 648.183 195.032C647.889 194.702 647.742 194.24 647.742 193.646C647.742 193.196 647.85 192.77 648.066 192.368C648.282 191.96 648.633 191.63 649.119 191.378C649.605 191.126 650.25 191 651.054 191C651.642 191 652.119 191.063 652.485 191.189C652.857 191.309 653.178 191.438 653.448 191.576L653.25 193.052C652.992 192.836 652.692 192.653 652.35 192.503C652.008 192.353 651.588 192.278 651.09 192.278C650.586 192.278 650.175 192.374 649.857 192.566C649.539 192.752 649.38 193.052 649.38 193.466C649.38 193.88 649.548 194.174 649.884 194.348C650.226 194.522 650.742 194.714 651.432 194.924C651.648 194.984 651.897 195.071 652.179 195.185C652.467 195.299 652.746 195.452 653.016 195.644C653.286 195.836 653.508 196.088 653.682 196.4C653.862 196.706 653.952 197.09 653.952 197.552C653.952 197.942 653.859 198.341 653.673 198.749C653.487 199.151 653.151 199.49 652.665 199.766C652.179 200.042 651.486 200.18 650.586 200.18Z" fill="black"/>
<circle cx="333" cy="272" r="187.5" stroke="#6480E1" stroke-opacity="0.53"/>
<path d="M787.5 273.5C787.5 377.879 702.437 462.5 597.5 462.5C492.563 462.5 407.5 377.879 407.5 273.5C407.5 169.121 492.563 84.5 597.5 84.5C702.437 84.5 787.5 169.121 787.5 273.5Z" stroke="#6480E1" stroke-opacity="0.53"/>
<path d="M501.5 271.5C501.5 409.57 389.348 521.5 251 521.5C112.652 521.5 0.5 409.57 0.5 271.5C0.5 133.43 112.652 21.5 251 21.5C389.348 21.5 501.5 133.43 501.5 271.5Z" stroke="#6480E1" stroke-opacity="0.53"/>
<path d="M982.5 277C982.5 429.708 858.93 553.5 706.5 553.5C554.07 553.5 430.5 429.708 430.5 277C430.5 124.292 554.07 0.5 706.5 0.5C858.93 0.5 982.5 124.292 982.5 277Z" stroke="#6480E1" stroke-opacity="0.53"/>
</svg>
