<svg width="197" height="45" viewBox="0 0 197 45" fill="none" xmlns="http://www.w3.org/2000/svg">
<g clip-path="url(#clip0_2_50)">
<path d="M75.6456 25.4449C76.8669 24.2385 77.4775 22.7827 77.4775 21.0776C77.4775 19.3725 76.8669 17.9167 75.6456 16.7102C74.4243 15.5038 72.9506 14.9006 71.2244 14.9006C69.4983 14.9006 68.0246 15.5038 66.8033 16.7102C65.582 17.9167 64.9713 19.3725 64.9713 21.0776C64.9713 22.7827 65.582 24.2385 66.8033 25.4449C68.0246 26.6514 69.4983 27.2546 71.2244 27.2546C72.9506 27.2546 74.4243 26.6514 75.6456 25.4449ZM60.2815 21.0776C60.2815 18.0856 61.3481 15.536 63.4814 13.4287C65.6146 11.3215 68.1956 10.2678 71.2244 10.2678C74.2533 10.2678 76.8343 11.3215 78.9675 13.4287C81.1008 15.536 82.1674 18.0856 82.1674 21.0776C82.1674 24.0696 81.1008 26.6192 78.9675 28.7264C76.8343 30.8337 74.2533 31.8873 71.2244 31.8873C68.8632 31.8873 66.7789 31.2519 64.9713 29.9811V38.0643H60.2815V21.0776Z" fill="#1E2551"/>
<path d="M85.2939 21.0776C85.2939 18.0856 86.3605 15.536 88.4937 13.4287C90.627 11.3215 93.208 10.2678 96.2368 10.2678V14.9006C94.5107 14.9006 93.037 15.5038 91.8157 16.7102C90.5944 17.9167 89.9837 19.3725 89.9837 21.0776V31.8873H85.2939V21.0776Z" fill="#1E2551"/>
<path d="M110.306 31.8873C107.277 31.8873 104.696 30.8337 102.563 28.7264C100.43 26.6192 99.3634 24.0696 99.3634 21.0776C99.3634 18.0856 100.43 15.536 102.563 13.4287C104.696 11.3215 107.277 10.2678 110.306 10.2678C113.335 10.2678 115.916 11.3215 118.049 13.4287C120.183 15.536 121.249 18.0856 121.249 21.0776C121.249 24.0696 120.183 26.6192 118.049 28.7264C115.916 30.8337 113.335 31.8873 110.306 31.8873ZM110.306 27.2546C112.032 27.2546 113.506 26.6514 114.727 25.4449C115.949 24.2385 116.559 22.7827 116.559 21.0776C116.559 19.3725 115.949 17.9167 114.727 16.7102C113.506 15.5038 112.032 14.9006 110.306 14.9006C108.58 14.9006 107.106 15.5038 105.885 16.7102C104.664 17.9167 104.053 19.3725 104.053 21.0776C104.053 22.7827 104.664 24.2385 105.885 25.4449C107.106 26.6514 108.58 27.2546 110.306 27.2546Z" fill="#1E2551"/>
<path d="M139.74 25.4449C140.961 24.2385 141.572 22.7827 141.572 21.0776C141.572 19.3725 140.961 17.9167 139.74 16.7102C138.519 15.5038 137.045 14.9006 135.319 14.9006C133.593 14.9006 132.119 15.5038 130.898 16.7102C129.676 17.9167 129.066 19.3725 129.066 21.0776C129.066 22.7827 129.676 24.2385 130.898 25.4449C132.119 26.6514 133.593 27.2546 135.319 27.2546C137.045 27.2546 138.519 26.6514 139.74 25.4449ZM124.376 21.0776C124.376 18.0856 125.442 15.536 127.576 13.4287C129.709 11.3215 132.29 10.2678 135.319 10.2678C138.348 10.2678 140.929 11.3215 143.062 13.4287C145.195 15.536 146.262 18.0856 146.262 21.0776C146.262 24.0696 145.195 26.6192 143.062 28.7264C140.929 30.8337 138.348 31.8873 135.319 31.8873C132.958 31.8873 130.873 31.2519 129.066 29.9811V38.0643H124.376V21.0776Z" fill="#1E2551"/>
<path d="M164.752 25.4449C165.974 24.2385 166.584 22.7827 166.584 21.0776C166.584 19.3725 165.974 17.9167 164.752 16.7102C163.531 15.5038 162.057 14.9006 160.331 14.9006C158.605 14.9006 157.131 15.5038 155.91 16.7102C154.689 17.9167 154.078 19.3725 154.078 21.0776C154.078 22.7827 154.689 24.2385 155.91 25.4449C157.131 26.6514 158.605 27.2546 160.331 27.2546C162.057 27.2546 163.531 26.6514 164.752 25.4449ZM149.388 21.0776C149.388 18.0856 150.455 15.536 152.588 13.4287C154.721 11.3215 157.302 10.2678 160.331 10.2678C163.36 10.2678 165.941 11.3215 168.074 13.4287C170.207 15.536 171.274 18.0856 171.274 21.0776C171.274 24.0696 170.207 26.6192 168.074 28.7264C165.941 30.8337 163.36 31.8873 160.331 31.8873C157.97 31.8873 155.886 31.2519 154.078 29.9811V38.0643H149.388V21.0776Z" fill="#1E2551"/>
<path d="M179.09 21.0776C179.09 22.7827 179.701 24.2385 180.922 25.4449C182.144 26.6514 183.617 27.2546 185.343 27.2546C187.07 27.2546 188.543 26.6514 189.765 25.4449C190.986 24.2385 191.597 22.7827 191.597 21.0776V10.2678H196.286V21.0776C196.286 24.0696 195.22 26.6192 193.087 28.7264C190.953 30.8337 188.372 31.8873 185.343 31.8873C182.315 31.8873 179.734 30.8337 177.6 28.7264C175.467 26.6192 174.401 24.0696 174.401 21.0776V10.2678H179.09V21.0776Z" fill="#1E2551"/>
<path d="M39.4246 0.0595703H5.99396C2.68025 0.0595703 -0.00604248 2.74586 -0.00604248 6.05957V38.9374C-0.00604248 42.2511 2.68025 44.9374 5.99396 44.9374H39.4246C42.7383 44.9374 45.4246 42.2511 45.4246 38.9374V6.05957C45.4246 2.74586 42.7383 0.0595703 39.4246 0.0595703Z" fill="#373C9B"/>
<path d="M24.7834 27.5424V17.8242C24.7834 14.3881 22.2915 11.3007 18.8372 10.8835C14.7132 10.3888 11.1925 13.5686 11.1925 17.5441V37.2398C11.1925 37.2696 11.1744 37.2934 11.1442 37.2934C10.7008 37.3053 7.37921 37.3858 7.37921 37.2934V17.9017C7.37921 12.4212 11.4851 7.60235 17.012 7.11361C23.2991 6.55632 28.5967 11.4527 28.5967 17.5471L28.5997 27.5663" fill="white"/>
<path d="M20.0982 19.8476V27.1758C20.0982 30.6119 22.5901 33.6993 26.0444 34.1165C30.1685 34.6112 33.6891 31.4314 33.6891 27.4559V7.31916C33.6891 7.28936 33.7072 7.26552 33.7374 7.26552C34.1809 7.2536 37.5024 7.17313 37.5024 7.26552V27.1013C37.5024 32.5817 33.3965 37.4006 27.8696 37.8894C21.5825 38.4466 16.2849 33.5503 16.2849 27.4559L16.2819 19.8238" fill="white"/>
</g>
<defs>
<clipPath id="clip0_2_50">
<rect width="197" height="45" fill="white"/>
</clipPath>
</defs>
</svg>
