<svg width="140" height="33" viewBox="0 0 140 33" fill="none" xmlns="http://www.w3.org/2000/svg">
<g clip-path="url(#clip0_299_84)">
<path d="M53.7908 18.9823C54.6526 18.1244 55.0834 17.0892 55.0834 15.8767C55.0834 14.6642 54.6526 13.6289 53.7908 12.771C52.9291 11.9131 51.8893 11.4841 50.6713 11.4841C49.4534 11.4841 48.4136 11.9131 47.5519 12.771C46.6901 13.6289 46.2593 14.6642 46.2593 15.8767C46.2593 17.0892 46.6901 18.1244 47.5519 18.9823C48.4136 19.8403 49.4534 20.2692 50.6713 20.2692C51.8893 20.2692 52.9291 19.8403 53.7908 18.9823ZM42.9502 15.8767C42.9502 13.749 43.7028 11.936 45.2079 10.4375C46.7131 8.93899 48.5342 8.18974 50.6713 8.18974C52.8084 8.18974 54.6296 8.93899 56.1347 10.4375C57.6399 11.936 58.3925 13.749 58.3925 15.8767C58.3925 18.0043 57.6399 19.8174 56.1347 21.3159C54.6296 22.8144 52.8084 23.5636 50.6713 23.5636C49.0053 23.5636 47.5346 23.1118 46.2593 22.2081V27.9562H42.9502V15.8767Z" fill="#1E2551"/>
<path d="M60.5985 15.8767C60.5985 13.749 61.3511 11.936 62.8563 10.4375C64.3614 8.93899 66.1826 8.18974 68.3197 8.18974V11.4841C67.1018 11.4841 66.0619 11.9131 65.2002 12.771C64.3385 13.6289 63.9076 14.6642 63.9076 15.8767V23.5636H60.5985V15.8767Z" fill="#1E2551"/>
<path d="M78.2469 23.5636C76.1098 23.5636 74.2886 22.8144 72.7835 21.3159C71.2783 19.8174 70.5257 18.0043 70.5257 15.8767C70.5257 13.749 71.2783 11.936 72.7835 10.4375C74.2886 8.93899 76.1098 8.18974 78.2469 8.18974C80.384 8.18974 82.2051 8.93899 83.7103 10.4375C85.2154 11.936 85.968 13.749 85.968 15.8767C85.968 18.0043 85.2154 19.8174 83.7103 21.3159C82.2051 22.8144 80.384 23.5636 78.2469 23.5636ZM78.2469 20.2692C79.4648 20.2692 80.5046 19.8403 81.3664 18.9823C82.2281 18.1244 82.659 17.0892 82.659 15.8767C82.659 14.6642 82.2281 13.6289 81.3664 12.771C80.5046 11.9131 79.4648 11.4841 78.2469 11.4841C77.029 11.4841 75.9891 11.9131 75.1274 12.771C74.2657 13.6289 73.8348 14.6642 73.8348 15.8767C73.8348 17.0892 74.2657 18.1244 75.1274 18.9823C75.9891 19.8403 77.029 20.2692 78.2469 20.2692Z" fill="#1E2551"/>
<path d="M99.0147 18.9823C99.8764 18.1244 100.307 17.0892 100.307 15.8767C100.307 14.6642 99.8764 13.6289 99.0147 12.771C98.153 11.9131 97.1131 11.4841 95.8952 11.4841C94.6773 11.4841 93.6375 11.9131 92.7757 12.771C91.914 13.6289 91.4831 14.6642 91.4831 15.8767C91.4831 17.0892 91.914 18.1244 92.7757 18.9823C93.6375 19.8403 94.6773 20.2692 95.8952 20.2692C97.1131 20.2692 98.153 19.8403 99.0147 18.9823ZM88.1741 15.8767C88.1741 13.749 88.9267 11.936 90.4318 10.4375C91.937 8.93899 93.7581 8.18974 95.8952 8.18974C98.0323 8.18974 99.8535 8.93899 101.359 10.4375C102.864 11.936 103.616 13.749 103.616 15.8767C103.616 18.0043 102.864 19.8174 101.359 21.3159C99.8535 22.8144 98.0323 23.5636 95.8952 23.5636C94.2292 23.5636 92.7585 23.1118 91.4831 22.2081V27.9562H88.1741V15.8767Z" fill="#1E2551"/>
<path d="M116.663 18.9823C117.525 18.1244 117.956 17.0892 117.956 15.8767C117.956 14.6642 117.525 13.6289 116.663 12.771C115.801 11.9131 114.761 11.4841 113.544 11.4841C112.326 11.4841 111.286 11.9131 110.424 12.771C109.562 13.6289 109.131 14.6642 109.131 15.8767C109.131 17.0892 109.562 18.1244 110.424 18.9823C111.286 19.8403 112.326 20.2692 113.544 20.2692C114.761 20.2692 115.801 19.8403 116.663 18.9823ZM105.822 15.8767C105.822 13.749 106.575 11.936 108.08 10.4375C109.585 8.93899 111.406 8.18974 113.544 8.18974C115.681 8.18974 117.502 8.93899 119.007 10.4375C120.512 11.936 121.265 13.749 121.265 15.8767C121.265 18.0043 120.512 19.8174 119.007 21.3159C117.502 22.8144 115.681 23.5636 113.544 23.5636C111.878 23.5636 110.407 23.1118 109.131 22.2081V27.9562H105.822V15.8767Z" fill="#1E2551"/>
<path d="M126.78 15.8767C126.78 17.0892 127.211 18.1244 128.072 18.9823C128.934 19.8403 129.974 20.2692 131.192 20.2692C132.41 20.2692 133.45 19.8403 134.311 18.9823C135.173 18.1244 135.604 17.0892 135.604 15.8767V8.18974H138.913V15.8767C138.913 18.0043 138.16 19.8174 136.655 21.3159C135.15 22.8144 133.329 23.5636 131.192 23.5636C129.055 23.5636 127.234 22.8144 125.729 21.3159C124.223 19.8174 123.471 18.0043 123.471 15.8767V8.18974H126.78V15.8767Z" fill="#1E2551"/>
<path d="M26.4682 0.930511H6.41309C3.09938 0.930511 0.413086 3.6168 0.413086 6.93051V26.8436C0.413086 30.1573 3.09937 32.8436 6.41308 32.8436H26.4682C29.7819 32.8436 32.4682 30.1573 32.4682 26.8436V6.93051C32.4682 3.6168 29.7819 0.930511 26.4682 0.930511Z" fill="#373C9B"/>
<path d="M17.9041 20.4738V13.5631C17.9041 11.1196 16.1459 8.92415 13.7086 8.62746C10.7987 8.27567 8.31462 10.5369 8.31462 13.3639V27.3697C8.31462 27.3909 8.30185 27.4079 8.28056 27.4079C7.96765 27.4163 5.62402 27.4736 5.62402 27.4079V13.6182C5.62402 9.72097 8.5211 6.29422 12.4208 5.94667C16.8568 5.55037 20.5947 9.03223 20.5947 13.366L20.5969 20.4908" fill="white"/>
<path d="M14.598 15.002V20.2132C14.598 22.6566 16.3563 24.8521 18.7935 25.1488C21.7034 25.5006 24.1875 23.2394 24.1875 20.4124V6.0929C24.1875 6.0717 24.2003 6.05475 24.2216 6.05475C24.5345 6.04627 26.8781 5.98905 26.8781 6.05475V20.1602C26.8781 24.0574 23.981 27.4841 20.0814 27.8317C15.6453 28.228 11.9074 24.7461 11.9074 20.4124L11.9053 14.9851" fill="white"/>
</g>
<defs>
<clipPath id="clip0_299_84">
<rect width="139" height="32" fill="white" transform="translate(0.416992 0.888123)"/>
</clipPath>
</defs>
</svg>
