<svg width="617" height="452" viewBox="0 0 617 452" fill="none" xmlns="http://www.w3.org/2000/svg">
<path d="M299.716 56.7197C301.308 54.4322 304.692 54.4322 306.284 56.7197L507.34 345.716C509.185 348.368 507.287 352 504.057 352H101.943C98.7127 352 96.8149 348.368 98.66 345.716L299.716 56.7197Z" fill="#F3F3F3"/>
<path d="M260.6 22V8H265.14C266.113 8 266.963 8.15 267.69 8.45C268.417 8.75 268.98 9.21333 269.38 9.84C269.78 10.4667 269.98 11.2733 269.98 12.26C269.98 13.22 269.77 14.0233 269.35 14.67C268.937 15.3167 268.333 15.8267 267.54 16.2L270.68 22H268.36L265.52 16.54C265.5 16.54 265.483 16.54 265.47 16.54C265.457 16.54 265.44 16.54 265.42 16.54H262.6V22H260.6ZM262.6 14.84H265.12C266.073 14.84 266.79 14.61 267.27 14.15C267.757 13.69 268 13.06 268 12.26C268 11.4467 267.757 10.8167 267.27 10.37C266.79 9.92333 266.073 9.7 265.12 9.7H262.6V14.84ZM276.6 22.2C275.446 22.2 274.476 21.9633 273.69 21.49C272.903 21.0167 272.306 20.39 271.9 19.61C271.5 18.8233 271.3 17.96 271.3 17.02C271.3 16.1067 271.486 15.27 271.86 14.51C272.24 13.75 272.786 13.1433 273.5 12.69C274.22 12.23 275.086 12 276.1 12C276.913 12 277.636 12.1633 278.27 12.49C278.91 12.81 279.41 13.28 279.77 13.9C280.136 14.5133 280.32 15.26 280.32 16.14C280.32 16.28 280.313 16.4333 280.3 16.6C280.293 16.76 280.273 16.9267 280.24 17.1H273.14C273.226 18.0067 273.443 18.7133 273.79 19.22C274.136 19.7267 274.573 20.0833 275.1 20.29C275.626 20.4967 276.2 20.6 276.82 20.6C277.273 20.6 277.746 20.5533 278.24 20.46C278.733 20.3667 279.2 20.22 279.64 20.02L279.88 21.44C279.5 21.6067 279.036 21.7767 278.49 21.95C277.943 22.1167 277.313 22.2 276.6 22.2ZM273.3 15.86H278.46C278.46 15.4 278.373 15 278.2 14.66C278.026 14.32 277.763 14.06 277.41 13.88C277.056 13.6933 276.606 13.6 276.06 13.6C275.26 13.6 274.643 13.8 274.21 14.2C273.783 14.5933 273.48 15.1467 273.3 15.86ZM282.134 22V12.2H283.534L283.894 14.08L283.194 13.78C283.854 13.0467 284.497 12.5667 285.124 12.34C285.757 12.1133 286.374 12 286.974 12C288.407 12 289.431 12.4133 290.044 13.24C290.664 14.0667 290.974 15.1867 290.974 16.6V22H289.174V16.6C289.174 15.56 288.981 14.8 288.594 14.32C288.207 13.84 287.547 13.6 286.614 13.6C285.954 13.6 285.347 13.7467 284.794 14.04C284.247 14.3267 283.887 14.7867 283.714 15.42L283.934 14.32V22H282.134ZM297.586 22.2C296.559 22.2 295.683 21.9733 294.956 21.52C294.236 21.06 293.683 20.4467 293.296 19.68C292.916 18.9067 292.726 18.0467 292.726 17.1C292.726 16.1533 292.916 15.2967 293.296 14.53C293.683 13.7567 294.236 13.1433 294.956 12.69C295.683 12.23 296.559 12 297.586 12C298.606 12 299.479 12.23 300.206 12.69C300.933 13.1433 301.486 13.7567 301.866 14.53C302.253 15.2967 302.446 16.1533 302.446 17.1C302.446 18.0467 302.253 18.9067 301.866 19.68C301.486 20.4467 300.933 21.06 300.206 21.52C299.479 21.9733 298.606 22.2 297.586 22.2ZM297.586 20.6C298.559 20.6 299.306 20.2933 299.826 19.68C300.346 19.06 300.606 18.2 300.606 17.1C300.606 16 300.346 15.1433 299.826 14.53C299.306 13.91 298.559 13.6 297.586 13.6C296.619 13.6 295.873 13.91 295.346 14.53C294.826 15.1433 294.566 16 294.566 17.1C294.566 18.2 294.826 19.06 295.346 19.68C295.873 20.2933 296.619 20.6 297.586 20.6ZM306.826 22L303.086 12.2H305.086L307.826 20.02L310.546 12.2H312.566L308.846 22H306.826ZM316.133 22.2C315.526 22.2 314.996 22.0767 314.543 21.83C314.089 21.5833 313.736 21.2467 313.483 20.82C313.236 20.3933 313.113 19.9067 313.113 19.36C313.113 18.8067 313.233 18.3333 313.473 17.94C313.719 17.54 314.046 17.21 314.453 16.95C314.866 16.6833 315.326 16.4733 315.833 16.32C316.339 16.16 316.863 16.0467 317.403 15.98C317.949 15.9067 318.473 15.8667 318.973 15.86C318.973 14.9267 318.789 14.3167 318.423 14.03C318.056 13.7433 317.526 13.6 316.833 13.6C316.466 13.6 316.073 13.6567 315.653 13.77C315.239 13.8833 314.773 14.12 314.253 14.48L313.993 13.02C314.386 12.72 314.876 12.4767 315.463 12.29C316.049 12.0967 316.666 12 317.313 12C318.139 12 318.806 12.1467 319.313 12.44C319.819 12.7267 320.189 13.2133 320.423 13.9C320.656 14.5867 320.773 15.52 320.773 16.7V18.7C320.773 19.1667 320.793 19.5533 320.833 19.86C320.879 20.16 320.979 20.3867 321.133 20.54C321.293 20.6867 321.546 20.76 321.893 20.76H322.073L321.793 22.2H321.653C321.073 22.2 320.623 22.1433 320.303 22.03C319.989 21.9167 319.749 21.7533 319.583 21.54C319.416 21.3267 319.266 21.0667 319.133 20.76C318.766 21.1867 318.333 21.5333 317.833 21.8C317.333 22.0667 316.766 22.2 316.133 22.2ZM316.473 20.76C316.953 20.76 317.416 20.64 317.863 20.4C318.316 20.16 318.686 19.84 318.973 19.44V17.1C318.019 17.1333 317.246 17.2267 316.653 17.38C316.066 17.5333 315.636 17.7633 315.363 18.07C315.089 18.3767 314.953 18.7733 314.953 19.26C314.953 19.7867 315.093 20.17 315.373 20.41C315.659 20.6433 316.026 20.76 316.473 20.76ZM326.647 22.2C326.027 22.2 325.53 22.0867 325.157 21.86C324.784 21.6333 324.51 21.3433 324.337 20.99C324.17 20.63 324.087 20.2533 324.087 19.86V13.6H322.407L322.567 12.2H324.087V9.78L325.887 9.6V12.2H328.467V13.6H325.887V18.76C325.887 19.3867 325.924 19.84 325.997 20.12C326.07 20.4 326.25 20.5767 326.537 20.65C326.83 20.7233 327.3 20.76 327.947 20.76H328.407L328.267 22.2H326.647ZM334.207 22.2C333.18 22.2 332.304 21.9733 331.577 21.52C330.857 21.06 330.304 20.4467 329.917 19.68C329.537 18.9067 329.347 18.0467 329.347 17.1C329.347 16.1533 329.537 15.2967 329.917 14.53C330.304 13.7567 330.857 13.1433 331.577 12.69C332.304 12.23 333.18 12 334.207 12C335.227 12 336.1 12.23 336.827 12.69C337.554 13.1433 338.107 13.7567 338.487 14.53C338.874 15.2967 339.067 16.1533 339.067 17.1C339.067 18.0467 338.874 18.9067 338.487 19.68C338.107 20.4467 337.554 21.06 336.827 21.52C336.1 21.9733 335.227 22.2 334.207 22.2ZM334.207 20.6C335.18 20.6 335.927 20.2933 336.447 19.68C336.967 19.06 337.227 18.2 337.227 17.1C337.227 16 336.967 15.1433 336.447 14.53C335.927 13.91 335.18 13.6 334.207 13.6C333.24 13.6 332.494 13.91 331.967 14.53C331.447 15.1433 331.187 16 331.187 17.1C331.187 18.2 331.447 19.06 331.967 19.68C332.494 20.2933 333.24 20.6 334.207 20.6ZM340.923 22V12.2H342.403L342.623 13.82C343.123 13.2 343.6 12.7433 344.053 12.45C344.513 12.15 345.003 12 345.523 12C345.69 12 345.843 12.02 345.983 12.06L345.803 14.04C345.716 14.02 345.623 14.0067 345.523 14C345.43 13.9867 345.323 13.98 345.203 13.98C344.683 13.98 344.203 14.0967 343.763 14.33C343.33 14.5567 343.023 14.8067 342.843 15.08V22H340.923ZM350.031 22.2C349.165 22.2 348.445 22.0967 347.871 21.89C347.305 21.6833 346.905 21.5 346.671 21.34L346.891 19.6C347.105 19.7867 347.481 20 348.021 20.24C348.561 20.48 349.205 20.6 349.951 20.6C350.585 20.6 351.068 20.4933 351.401 20.28C351.741 20.0667 351.911 19.7667 351.911 19.38C351.911 19.04 351.801 18.7667 351.581 18.56C351.368 18.3467 351.108 18.18 350.801 18.06C350.501 17.9333 350.218 17.8333 349.951 17.76C349.505 17.64 349.041 17.49 348.561 17.31C348.088 17.1233 347.688 16.8467 347.361 16.48C347.035 16.1133 346.871 15.6 346.871 14.94C346.871 14.44 346.991 13.9667 347.231 13.52C347.471 13.0667 347.861 12.7 348.401 12.42C348.941 12.14 349.658 12 350.551 12C351.205 12 351.735 12.07 352.141 12.21C352.555 12.3433 352.911 12.4867 353.211 12.64L352.991 14.28C352.705 14.04 352.371 13.8367 351.991 13.67C351.611 13.5033 351.145 13.42 350.591 13.42C350.031 13.42 349.575 13.5267 349.221 13.74C348.868 13.9467 348.691 14.28 348.691 14.74C348.691 15.2 348.878 15.5267 349.251 15.72C349.631 15.9133 350.205 16.1267 350.971 16.36C351.211 16.4267 351.488 16.5233 351.801 16.65C352.121 16.7767 352.431 16.9467 352.731 17.16C353.031 17.3733 353.278 17.6533 353.471 18C353.671 18.34 353.771 18.7667 353.771 19.28C353.771 19.7133 353.668 20.1567 353.461 20.61C353.255 21.0567 352.881 21.4333 352.341 21.74C351.801 22.0467 351.031 22.2 350.031 22.2Z" fill="black"/>
<path d="M7.84 312.28C6.48 312.28 5.26667 311.983 4.2 311.39C3.14 310.79 2.30333 309.947 1.69 308.86C1.08333 307.767 0.78 306.48 0.78 305C0.78 303.52 1.08667 302.237 1.7 301.15C2.32 300.057 3.16667 299.213 4.24 298.62C5.32 298.02 6.54667 297.72 7.92 297.72C8.63333 297.72 9.31333 297.797 9.96 297.95C10.6067 298.103 11.1733 298.3 11.66 298.54L11.46 300.3C10.96 300.06 10.41 299.857 9.81 299.69C9.21 299.523 8.57333 299.44 7.9 299.44C6.8 299.44 5.87667 299.69 5.13 300.19C4.38333 300.683 3.81667 301.35 3.43 302.19C3.05 303.03 2.86 303.967 2.86 305C2.86 306.033 3.04667 306.97 3.42 307.81C3.8 308.65 4.36 309.32 5.1 309.82C5.84667 310.313 6.76667 310.56 7.86 310.56C8.55333 310.56 9.19333 310.487 9.78 310.34C10.3733 310.187 10.9333 309.98 11.46 309.72L11.66 311.48C11.16 311.707 10.5967 311.897 9.97 312.05C9.34333 312.203 8.63333 312.28 7.84 312.28ZM17.5508 312.2C16.5241 312.2 15.6474 311.973 14.9208 311.52C14.2008 311.06 13.6474 310.447 13.2608 309.68C12.8808 308.907 12.6908 308.047 12.6908 307.1C12.6908 306.153 12.8808 305.297 13.2608 304.53C13.6474 303.757 14.2008 303.143 14.9208 302.69C15.6474 302.23 16.5241 302 17.5508 302C18.5708 302 19.4441 302.23 20.1708 302.69C20.8974 303.143 21.4508 303.757 21.8308 304.53C22.2174 305.297 22.4108 306.153 22.4108 307.1C22.4108 308.047 22.2174 308.907 21.8308 309.68C21.4508 310.447 20.8974 311.06 20.1708 311.52C19.4441 311.973 18.5708 312.2 17.5508 312.2ZM17.5508 310.6C18.5241 310.6 19.2708 310.293 19.7908 309.68C20.3108 309.06 20.5708 308.2 20.5708 307.1C20.5708 306 20.3108 305.143 19.7908 304.53C19.2708 303.91 18.5241 303.6 17.5508 303.6C16.5841 303.6 15.8374 303.91 15.3108 304.53C14.7908 305.143 14.5308 306 14.5308 307.1C14.5308 308.2 14.7908 309.06 15.3108 309.68C15.8374 310.293 16.5841 310.6 17.5508 310.6ZM24.2669 312V302.2H25.6669L26.0269 304.08L25.3269 303.78C25.9869 303.047 26.6302 302.567 27.2569 302.34C27.8902 302.113 28.5069 302 29.1069 302C30.5402 302 31.5635 302.413 32.1769 303.24C32.7969 304.067 33.1069 305.187 33.1069 306.6V312H31.3069V306.6C31.3069 305.56 31.1135 304.8 30.7269 304.32C30.3402 303.84 29.6802 303.6 28.7469 303.6C28.0869 303.6 27.4802 303.747 26.9269 304.04C26.3802 304.327 26.0202 304.787 25.8469 305.42L26.0669 304.32V312H24.2669ZM38.6625 312.2C38.0425 312.2 37.5458 312.087 37.1725 311.86C36.7992 311.633 36.5258 311.343 36.3525 310.99C36.1858 310.63 36.1025 310.253 36.1025 309.86V303.6H34.4225L34.5825 302.2H36.1025V299.78L37.9025 299.6V302.2H40.4825V303.6H37.9025V308.76C37.9025 309.387 37.9392 309.84 38.0125 310.12C38.0858 310.4 38.2658 310.577 38.5525 310.65C38.8458 310.723 39.3158 310.76 39.9625 310.76H40.4225L40.2825 312.2H38.6625ZM42.0208 312V302.2H43.5008L43.7208 303.82C44.2208 303.2 44.6974 302.743 45.1508 302.45C45.6108 302.15 46.1008 302 46.6208 302C46.7874 302 46.9408 302.02 47.0808 302.06L46.9008 304.04C46.8141 304.02 46.7208 304.007 46.6208 304C46.5274 303.987 46.4208 303.98 46.3008 303.98C45.7808 303.98 45.3008 304.097 44.8608 304.33C44.4274 304.557 44.1208 304.807 43.9408 305.08V312H42.0208ZM50.4922 312.2C49.8855 312.2 49.3555 312.077 48.9022 311.83C48.4489 311.583 48.0955 311.247 47.8422 310.82C47.5955 310.393 47.4722 309.907 47.4722 309.36C47.4722 308.807 47.5922 308.333 47.8322 307.94C48.0789 307.54 48.4055 307.21 48.8122 306.95C49.2255 306.683 49.6855 306.473 50.1922 306.32C50.6989 306.16 51.2222 306.047 51.7622 305.98C52.3089 305.907 52.8322 305.867 53.3322 305.86C53.3322 304.927 53.1489 304.317 52.7822 304.03C52.4155 303.743 51.8855 303.6 51.1922 303.6C50.8255 303.6 50.4322 303.657 50.0122 303.77C49.5989 303.883 49.1322 304.12 48.6122 304.48L48.3522 303.02C48.7455 302.72 49.2355 302.477 49.8222 302.29C50.4089 302.097 51.0255 302 51.6722 302C52.4989 302 53.1655 302.147 53.6722 302.44C54.1789 302.727 54.5489 303.213 54.7822 303.9C55.0155 304.587 55.1322 305.52 55.1322 306.7V308.7C55.1322 309.167 55.1522 309.553 55.1922 309.86C55.2389 310.16 55.3389 310.387 55.4922 310.54C55.6522 310.687 55.9055 310.76 56.2522 310.76H56.4322L56.1522 312.2H56.0122C55.4322 312.2 54.9822 312.143 54.6622 312.03C54.3489 311.917 54.1089 311.753 53.9422 311.54C53.7755 311.327 53.6255 311.067 53.4922 310.76C53.1255 311.187 52.6922 311.533 52.1922 311.8C51.6922 312.067 51.1255 312.2 50.4922 312.2ZM50.8322 310.76C51.3122 310.76 51.7755 310.64 52.2222 310.4C52.6755 310.16 53.0455 309.84 53.3322 309.44V307.1C52.3789 307.133 51.6055 307.227 51.0122 307.38C50.4255 307.533 49.9955 307.763 49.7222 308.07C49.4489 308.377 49.3122 308.773 49.3122 309.26C49.3122 309.787 49.4522 310.17 49.7322 310.41C50.0189 310.643 50.3855 310.76 50.8322 310.76ZM62.3216 312.2C61.2149 312.2 60.2849 311.977 59.5316 311.53C58.7849 311.077 58.2182 310.47 57.8316 309.71C57.4516 308.943 57.2616 308.093 57.2616 307.16C57.2616 306.187 57.4449 305.31 57.8116 304.53C58.1849 303.75 58.7549 303.133 59.5216 302.68C60.2882 302.227 61.2682 302 62.4616 302C62.9749 302 63.4582 302.053 63.9116 302.16C64.3716 302.26 64.7816 302.4 65.1416 302.58L64.8616 304.16C64.4949 303.987 64.1049 303.85 63.6916 303.75C63.2849 303.65 62.8616 303.6 62.4216 303.6C61.3416 303.6 60.5182 303.907 59.9516 304.52C59.3849 305.133 59.1016 305.987 59.1016 307.08C59.1016 308.147 59.3716 309.003 59.9116 309.65C60.4516 310.297 61.2749 310.62 62.3816 310.62C62.8349 310.62 63.2682 310.567 63.6816 310.46C64.1016 310.353 64.5016 310.207 64.8816 310.02L65.1216 311.46C64.8549 311.647 64.4649 311.817 63.9516 311.97C63.4382 312.123 62.8949 312.2 62.3216 312.2ZM70.2836 312.2C69.6636 312.2 69.1669 312.087 68.7936 311.86C68.4203 311.633 68.1469 311.343 67.9736 310.99C67.8069 310.63 67.7236 310.253 67.7236 309.86V303.6H66.0436L66.2036 302.2H67.7236V299.78L69.5236 299.6V302.2H72.1036V303.6H69.5236V308.76C69.5236 309.387 69.5603 309.84 69.6336 310.12C69.7069 310.4 69.8869 310.577 70.1736 310.65C70.4669 310.723 70.9369 310.76 71.5836 310.76H72.0436L71.9036 312.2H70.2836ZM77.8438 312.2C76.8171 312.2 75.9404 311.973 75.2138 311.52C74.4938 311.06 73.9404 310.447 73.5538 309.68C73.1738 308.907 72.9838 308.047 72.9838 307.1C72.9838 306.153 73.1738 305.297 73.5538 304.53C73.9404 303.757 74.4938 303.143 75.2138 302.69C75.9404 302.23 76.8171 302 77.8438 302C78.8638 302 79.7371 302.23 80.4638 302.69C81.1904 303.143 81.7438 303.757 82.1238 304.53C82.5104 305.297 82.7038 306.153 82.7038 307.1C82.7038 308.047 82.5104 308.907 82.1238 309.68C81.7438 310.447 81.1904 311.06 80.4638 311.52C79.7371 311.973 78.8638 312.2 77.8438 312.2ZM77.8438 310.6C78.8171 310.6 79.5638 310.293 80.0838 309.68C80.6038 309.06 80.8638 308.2 80.8638 307.1C80.8638 306 80.6038 305.143 80.0838 304.53C79.5638 303.91 78.8171 303.6 77.8438 303.6C76.8771 303.6 76.1304 303.91 75.6038 304.53C75.0838 305.143 74.8238 306 74.8238 307.1C74.8238 308.2 75.0838 309.06 75.6038 309.68C76.1304 310.293 76.8771 310.6 77.8438 310.6ZM84.5598 312V302.2H86.0398L86.2598 303.82C86.7598 303.2 87.2365 302.743 87.6898 302.45C88.1498 302.15 88.6398 302 89.1598 302C89.3265 302 89.4798 302.02 89.6198 302.06L89.4398 304.04C89.3532 304.02 89.2598 304.007 89.1598 304C89.0665 303.987 88.9598 303.98 88.8398 303.98C88.3198 303.98 87.8398 304.097 87.3998 304.33C86.9665 304.557 86.6598 304.807 86.4798 305.08V312H84.5598ZM93.668 312.2C92.8013 312.2 92.0813 312.097 91.508 311.89C90.9413 311.683 90.5413 311.5 90.308 311.34L90.528 309.6C90.7413 309.787 91.118 310 91.658 310.24C92.198 310.48 92.8413 310.6 93.588 310.6C94.2213 310.6 94.7046 310.493 95.038 310.28C95.378 310.067 95.548 309.767 95.548 309.38C95.548 309.04 95.438 308.767 95.218 308.56C95.0046 308.347 94.7446 308.18 94.438 308.06C94.138 307.933 93.8546 307.833 93.588 307.76C93.1413 307.64 92.678 307.49 92.198 307.31C91.7246 307.123 91.3246 306.847 90.998 306.48C90.6713 306.113 90.508 305.6 90.508 304.94C90.508 304.44 90.628 303.967 90.868 303.52C91.108 303.067 91.498 302.7 92.038 302.42C92.578 302.14 93.2946 302 94.188 302C94.8413 302 95.3713 302.07 95.778 302.21C96.1913 302.343 96.548 302.487 96.848 302.64L96.628 304.28C96.3413 304.04 96.008 303.837 95.628 303.67C95.248 303.503 94.7813 303.42 94.228 303.42C93.668 303.42 93.2113 303.527 92.858 303.74C92.5046 303.947 92.328 304.28 92.328 304.74C92.328 305.2 92.5146 305.527 92.888 305.72C93.268 305.913 93.8413 306.127 94.608 306.36C94.848 306.427 95.1246 306.523 95.438 306.65C95.758 306.777 96.068 306.947 96.368 307.16C96.668 307.373 96.9146 307.653 97.108 308C97.308 308.34 97.408 308.767 97.408 309.28C97.408 309.713 97.3046 310.157 97.098 310.61C96.8913 311.057 96.518 311.433 95.978 311.74C95.438 312.047 94.668 312.2 93.668 312.2Z" fill="black"/>
<path d="M515.84 305.28C514.48 305.28 513.267 304.983 512.2 304.39C511.14 303.79 510.303 302.947 509.69 301.86C509.083 300.767 508.78 299.48 508.78 298C508.78 296.52 509.087 295.237 509.7 294.15C510.32 293.057 511.167 292.213 512.24 291.62C513.32 291.02 514.547 290.72 515.92 290.72C516.633 290.72 517.313 290.797 517.96 290.95C518.607 291.103 519.173 291.3 519.66 291.54L519.46 293.3C518.96 293.06 518.41 292.857 517.81 292.69C517.21 292.523 516.573 292.44 515.9 292.44C514.8 292.44 513.877 292.69 513.13 293.19C512.383 293.683 511.817 294.35 511.43 295.19C511.05 296.03 510.86 296.967 510.86 298C510.86 299.033 511.047 299.97 511.42 300.81C511.8 301.65 512.36 302.32 513.1 302.82C513.847 303.313 514.767 303.56 515.86 303.56C516.553 303.56 517.193 303.487 517.78 303.34C518.373 303.187 518.933 302.98 519.46 302.72L519.66 304.48C519.16 304.707 518.597 304.897 517.97 305.05C517.343 305.203 516.633 305.28 515.84 305.28ZM525.551 305.2C524.524 305.2 523.647 304.973 522.921 304.52C522.201 304.06 521.647 303.447 521.261 302.68C520.881 301.907 520.691 301.047 520.691 300.1C520.691 299.153 520.881 298.297 521.261 297.53C521.647 296.757 522.201 296.143 522.921 295.69C523.647 295.23 524.524 295 525.551 295C526.571 295 527.444 295.23 528.171 295.69C528.897 296.143 529.451 296.757 529.831 297.53C530.217 298.297 530.411 299.153 530.411 300.1C530.411 301.047 530.217 301.907 529.831 302.68C529.451 303.447 528.897 304.06 528.171 304.52C527.444 304.973 526.571 305.2 525.551 305.2ZM525.551 303.6C526.524 303.6 527.271 303.293 527.791 302.68C528.311 302.06 528.571 301.2 528.571 300.1C528.571 299 528.311 298.143 527.791 297.53C527.271 296.91 526.524 296.6 525.551 296.6C524.584 296.6 523.837 296.91 523.311 297.53C522.791 298.143 522.531 299 522.531 300.1C522.531 301.2 522.791 302.06 523.311 302.68C523.837 303.293 524.584 303.6 525.551 303.6ZM532.267 305V295.2H533.667L534.027 297.08L533.327 296.78C533.987 296.047 534.63 295.567 535.257 295.34C535.89 295.113 536.507 295 537.107 295C538.54 295 539.564 295.413 540.177 296.24C540.797 297.067 541.107 298.187 541.107 299.6V305H539.307V299.6C539.307 298.56 539.114 297.8 538.727 297.32C538.34 296.84 537.68 296.6 536.747 296.6C536.087 296.6 535.48 296.747 534.927 297.04C534.38 297.327 534.02 297.787 533.847 298.42L534.067 297.32V305H532.267ZM546.219 305.2C545.352 305.2 544.632 305.097 544.059 304.89C543.492 304.683 543.092 304.5 542.859 304.34L543.079 302.6C543.292 302.787 543.669 303 544.209 303.24C544.749 303.48 545.392 303.6 546.139 303.6C546.772 303.6 547.255 303.493 547.589 303.28C547.929 303.067 548.099 302.767 548.099 302.38C548.099 302.04 547.989 301.767 547.769 301.56C547.555 301.347 547.295 301.18 546.989 301.06C546.689 300.933 546.405 300.833 546.139 300.76C545.692 300.64 545.229 300.49 544.749 300.31C544.275 300.123 543.875 299.847 543.549 299.48C543.222 299.113 543.059 298.6 543.059 297.94C543.059 297.44 543.179 296.967 543.419 296.52C543.659 296.067 544.049 295.7 544.589 295.42C545.129 295.14 545.845 295 546.739 295C547.392 295 547.922 295.07 548.329 295.21C548.742 295.343 549.099 295.487 549.399 295.64L549.179 297.28C548.892 297.04 548.559 296.837 548.179 296.67C547.799 296.503 547.332 296.42 546.779 296.42C546.219 296.42 545.762 296.527 545.409 296.74C545.055 296.947 544.879 297.28 544.879 297.74C544.879 298.2 545.065 298.527 545.439 298.72C545.819 298.913 546.392 299.127 547.159 299.36C547.399 299.427 547.675 299.523 547.989 299.65C548.309 299.777 548.619 299.947 548.919 300.16C549.219 300.373 549.465 300.653 549.659 301C549.859 301.34 549.959 301.767 549.959 302.28C549.959 302.713 549.855 303.157 549.649 303.61C549.442 304.057 549.069 304.433 548.529 304.74C547.989 305.047 547.219 305.2 546.219 305.2ZM555.1 305.2C554.48 305.2 553.983 305.087 553.61 304.86C553.237 304.633 552.963 304.343 552.79 303.99C552.623 303.63 552.54 303.253 552.54 302.86V296.6H550.86L551.02 295.2H552.54V292.78L554.34 292.6V295.2H556.92V296.6H554.34V301.76C554.34 302.387 554.377 302.84 554.45 303.12C554.523 303.4 554.703 303.577 554.99 303.65C555.283 303.723 555.753 303.76 556.4 303.76H556.86L556.72 305.2H555.1ZM558.458 305V295.2H559.938L560.158 296.82C560.658 296.2 561.135 295.743 561.588 295.45C562.048 295.15 562.538 295 563.058 295C563.225 295 563.378 295.02 563.518 295.06L563.338 297.04C563.252 297.02 563.158 297.007 563.058 297C562.965 296.987 562.858 296.98 562.738 296.98C562.218 296.98 561.738 297.097 561.298 297.33C560.865 297.557 560.558 297.807 560.378 298.08V305H558.458ZM568.306 305.2C567.54 305.2 566.886 305.047 566.346 304.74C565.806 304.427 565.393 303.953 565.106 303.32C564.826 302.687 564.686 301.88 564.686 300.9V295.2H566.486V300.4C566.486 301.44 566.663 302.233 567.016 302.78C567.376 303.327 567.96 303.6 568.766 303.6C569.32 303.6 569.833 303.467 570.306 303.2C570.78 302.933 571.106 302.507 571.286 301.92L571.026 302.9V295.2H572.826V305H571.226L570.866 303.08L571.346 303.4C571.02 304.007 570.62 304.46 570.146 304.76C569.68 305.053 569.066 305.2 568.306 305.2ZM579.775 305.2C578.668 305.2 577.738 304.977 576.985 304.53C576.238 304.077 575.671 303.47 575.285 302.71C574.905 301.943 574.715 301.093 574.715 300.16C574.715 299.187 574.898 298.31 575.265 297.53C575.638 296.75 576.208 296.133 576.975 295.68C577.741 295.227 578.721 295 579.915 295C580.428 295 580.911 295.053 581.365 295.16C581.825 295.26 582.235 295.4 582.595 295.58L582.315 297.16C581.948 296.987 581.558 296.85 581.145 296.75C580.738 296.65 580.315 296.6 579.875 296.6C578.795 296.6 577.971 296.907 577.405 297.52C576.838 298.133 576.555 298.987 576.555 300.08C576.555 301.147 576.825 302.003 577.365 302.65C577.905 303.297 578.728 303.62 579.835 303.62C580.288 303.62 580.721 303.567 581.135 303.46C581.555 303.353 581.955 303.207 582.335 303.02L582.575 304.46C582.308 304.647 581.918 304.817 581.405 304.97C580.891 305.123 580.348 305.2 579.775 305.2ZM587.737 305.2C587.117 305.2 586.62 305.087 586.247 304.86C585.873 304.633 585.6 304.343 585.427 303.99C585.26 303.63 585.177 303.253 585.177 302.86V296.6H583.497L583.657 295.2H585.177V292.78L586.977 292.6V295.2H589.557V296.6H586.977V301.76C586.977 302.387 587.013 302.84 587.087 303.12C587.16 303.4 587.34 303.577 587.627 303.65C587.92 303.723 588.39 303.76 589.037 303.76H589.497L589.357 305.2H587.737ZM591.095 305V295.2H592.895V305H591.095ZM591.095 293V291H592.895V293H591.095ZM599.613 305.2C598.587 305.2 597.71 304.973 596.983 304.52C596.263 304.06 595.71 303.447 595.323 302.68C594.943 301.907 594.753 301.047 594.753 300.1C594.753 299.153 594.943 298.297 595.323 297.53C595.71 296.757 596.263 296.143 596.983 295.69C597.71 295.23 598.587 295 599.613 295C600.633 295 601.507 295.23 602.233 295.69C602.96 296.143 603.513 296.757 603.893 297.53C604.28 298.297 604.473 299.153 604.473 300.1C604.473 301.047 604.28 301.907 603.893 302.68C603.513 303.447 602.96 304.06 602.233 304.52C601.507 304.973 600.633 305.2 599.613 305.2ZM599.613 303.6C600.587 303.6 601.333 303.293 601.853 302.68C602.373 302.06 602.633 301.2 602.633 300.1C602.633 299 602.373 298.143 601.853 297.53C601.333 296.91 600.587 296.6 599.613 296.6C598.647 296.6 597.9 296.91 597.373 297.53C596.853 298.143 596.593 299 596.593 300.1C596.593 301.2 596.853 302.06 597.373 302.68C597.9 303.293 598.647 303.6 599.613 303.6ZM606.329 305V295.2H607.729L608.089 297.08L607.389 296.78C608.049 296.047 608.693 295.567 609.319 295.34C609.953 295.113 610.569 295 611.169 295C612.603 295 613.626 295.413 614.239 296.24C614.859 297.067 615.169 298.187 615.169 299.6V305H613.369V299.6C613.369 298.56 613.176 297.8 612.789 297.32C612.403 296.84 611.743 296.6 610.809 296.6C610.149 296.6 609.543 296.747 608.989 297.04C608.443 297.327 608.083 297.787 607.909 298.42L608.129 297.32V305H606.329ZM515.84 327.28C514.48 327.28 513.267 326.983 512.2 326.39C511.14 325.79 510.303 324.947 509.69 323.86C509.083 322.767 508.78 321.48 508.78 320C508.78 318.52 509.087 317.237 509.7 316.15C510.32 315.057 511.167 314.213 512.24 313.62C513.32 313.02 514.547 312.72 515.92 312.72C516.633 312.72 517.313 312.797 517.96 312.95C518.607 313.103 519.173 313.3 519.66 313.54L519.46 315.3C518.96 315.06 518.41 314.857 517.81 314.69C517.21 314.523 516.573 314.44 515.9 314.44C514.8 314.44 513.877 314.69 513.13 315.19C512.383 315.683 511.817 316.35 511.43 317.19C511.05 318.03 510.86 318.967 510.86 320C510.86 321.033 511.047 321.97 511.42 322.81C511.8 323.65 512.36 324.32 513.1 324.82C513.847 325.313 514.767 325.56 515.86 325.56C516.553 325.56 517.193 325.487 517.78 325.34C518.373 325.187 518.933 324.98 519.46 324.72L519.66 326.48C519.16 326.707 518.597 326.897 517.97 327.05C517.343 327.203 516.633 327.28 515.84 327.28ZM525.551 327.2C524.524 327.2 523.647 326.973 522.921 326.52C522.201 326.06 521.647 325.447 521.261 324.68C520.881 323.907 520.691 323.047 520.691 322.1C520.691 321.153 520.881 320.297 521.261 319.53C521.647 318.757 522.201 318.143 522.921 317.69C523.647 317.23 524.524 317 525.551 317C526.571 317 527.444 317.23 528.171 317.69C528.897 318.143 529.451 318.757 529.831 319.53C530.217 320.297 530.411 321.153 530.411 322.1C530.411 323.047 530.217 323.907 529.831 324.68C529.451 325.447 528.897 326.06 528.171 326.52C527.444 326.973 526.571 327.2 525.551 327.2ZM525.551 325.6C526.524 325.6 527.271 325.293 527.791 324.68C528.311 324.06 528.571 323.2 528.571 322.1C528.571 321 528.311 320.143 527.791 319.53C527.271 318.91 526.524 318.6 525.551 318.6C524.584 318.6 523.837 318.91 523.311 319.53C522.791 320.143 522.531 321 522.531 322.1C522.531 323.2 522.791 324.06 523.311 324.68C523.837 325.293 524.584 325.6 525.551 325.6ZM532.267 327V317.2H533.667L534.027 319.08L533.347 318.76C533.96 318.1 534.557 317.643 535.137 317.39C535.717 317.13 536.327 317 536.967 317C537.447 317 537.907 317.08 538.347 317.24C538.794 317.393 539.194 317.667 539.547 318.06C539.907 318.447 540.194 318.987 540.407 319.68L539.907 319.46C540.2 318.7 540.65 318.1 541.257 317.66C541.864 317.22 542.68 317 543.707 317C544.527 317 545.217 317.153 545.777 317.46C546.337 317.76 546.757 318.223 547.037 318.85C547.324 319.47 547.467 320.26 547.467 321.22V327H545.667V321.24C545.667 320.32 545.487 319.65 545.127 319.23C544.767 318.81 544.18 318.6 543.367 318.6C542.794 318.6 542.334 318.69 541.987 318.87C541.64 319.043 541.377 319.27 541.197 319.55C541.024 319.83 540.907 320.127 540.847 320.44C540.794 320.753 540.767 321.047 540.767 321.32V327H538.967V321.6C538.967 320.8 538.87 320.183 538.677 319.75C538.484 319.317 538.214 319.017 537.867 318.85C537.52 318.683 537.12 318.6 536.667 318.6C536.007 318.6 535.417 318.747 534.897 319.04C534.377 319.327 534.027 319.787 533.847 320.42L534.067 319.44V327H532.267ZM549.806 331.84V317.2H551.206L551.526 319.44L551.026 319.08C551.439 318.44 551.949 317.933 552.556 317.56C553.163 317.187 553.906 317 554.786 317C555.679 317 556.446 317.227 557.086 317.68C557.726 318.133 558.216 318.747 558.556 319.52C558.896 320.287 559.066 321.147 559.066 322.1C559.066 323.053 558.906 323.917 558.586 324.69C558.266 325.457 557.789 326.067 557.156 326.52C556.523 326.973 555.733 327.2 554.786 327.2C554.006 327.2 553.299 327.04 552.666 326.72C552.039 326.393 551.586 325.907 551.306 325.26L551.606 324.9V331.84H549.806ZM554.446 325.6C555.319 325.6 555.999 325.293 556.486 324.68C556.979 324.06 557.226 323.2 557.226 322.1C557.226 321 556.979 320.143 556.486 319.53C555.999 318.91 555.319 318.6 554.446 318.6C553.906 318.6 553.413 318.73 552.966 318.99C552.526 319.243 552.173 319.63 551.906 320.15C551.639 320.663 551.506 321.313 551.506 322.1C551.506 322.92 551.639 323.587 551.906 324.1C552.173 324.613 552.526 324.993 552.966 325.24C553.413 325.48 553.906 325.6 554.446 325.6ZM563.219 327.2C562.612 327.2 562.082 327.077 561.629 326.83C561.175 326.583 560.822 326.247 560.569 325.82C560.322 325.393 560.199 324.907 560.199 324.36C560.199 323.807 560.319 323.333 560.559 322.94C560.805 322.54 561.132 322.21 561.539 321.95C561.952 321.683 562.412 321.473 562.919 321.32C563.425 321.16 563.949 321.047 564.489 320.98C565.035 320.907 565.559 320.867 566.059 320.86C566.059 319.927 565.875 319.317 565.509 319.03C565.142 318.743 564.612 318.6 563.919 318.6C563.552 318.6 563.159 318.657 562.739 318.77C562.325 318.883 561.859 319.12 561.339 319.48L561.079 318.02C561.472 317.72 561.962 317.477 562.549 317.29C563.135 317.097 563.752 317 564.399 317C565.225 317 565.892 317.147 566.399 317.44C566.905 317.727 567.275 318.213 567.509 318.9C567.742 319.587 567.859 320.52 567.859 321.7V323.7C567.859 324.167 567.879 324.553 567.919 324.86C567.965 325.16 568.065 325.387 568.219 325.54C568.379 325.687 568.632 325.76 568.979 325.76H569.159L568.879 327.2H568.739C568.159 327.2 567.709 327.143 567.389 327.03C567.075 326.917 566.835 326.753 566.669 326.54C566.502 326.327 566.352 326.067 566.219 325.76C565.852 326.187 565.419 326.533 564.919 326.8C564.419 327.067 563.852 327.2 563.219 327.2ZM563.559 325.76C564.039 325.76 564.502 325.64 564.949 325.4C565.402 325.16 565.772 324.84 566.059 324.44V322.1C565.105 322.133 564.332 322.227 563.739 322.38C563.152 322.533 562.722 322.763 562.449 323.07C562.175 323.377 562.039 323.773 562.039 324.26C562.039 324.787 562.179 325.17 562.459 325.41C562.745 325.643 563.112 325.76 563.559 325.76ZM570.548 327V317.2H571.948L572.308 319.08L571.608 318.78C572.268 318.047 572.911 317.567 573.538 317.34C574.171 317.113 574.788 317 575.388 317C576.821 317 577.845 317.413 578.458 318.24C579.078 319.067 579.388 320.187 579.388 321.6V327H577.588V321.6C577.588 320.56 577.395 319.8 577.008 319.32C576.621 318.84 575.961 318.6 575.028 318.6C574.368 318.6 573.761 318.747 573.208 319.04C572.661 319.327 572.301 319.787 572.128 320.42L572.348 319.32V327H570.548ZM581.72 327V317.2H583.52V327H581.72ZM581.72 315V313H583.52V315H581.72ZM590.658 327.2C589.505 327.2 588.535 326.963 587.748 326.49C586.962 326.017 586.365 325.39 585.958 324.61C585.558 323.823 585.358 322.96 585.358 322.02C585.358 321.107 585.545 320.27 585.918 319.51C586.298 318.75 586.845 318.143 587.558 317.69C588.278 317.23 589.145 317 590.158 317C590.972 317 591.695 317.163 592.328 317.49C592.968 317.81 593.468 318.28 593.828 318.9C594.195 319.513 594.378 320.26 594.378 321.14C594.378 321.28 594.372 321.433 594.358 321.6C594.352 321.76 594.332 321.927 594.298 322.1H587.198C587.285 323.007 587.502 323.713 587.848 324.22C588.195 324.727 588.632 325.083 589.158 325.29C589.685 325.497 590.258 325.6 590.878 325.6C591.332 325.6 591.805 325.553 592.298 325.46C592.792 325.367 593.258 325.22 593.698 325.02L593.938 326.44C593.558 326.607 593.095 326.777 592.548 326.95C592.002 327.117 591.372 327.2 590.658 327.2ZM587.358 320.86H592.518C592.518 320.4 592.432 320 592.258 319.66C592.085 319.32 591.822 319.06 591.468 318.88C591.115 318.693 590.665 318.6 590.118 318.6C589.318 318.6 588.702 318.8 588.268 319.2C587.842 319.593 587.538 320.147 587.358 320.86ZM598.973 327.2C598.106 327.2 597.386 327.097 596.813 326.89C596.246 326.683 595.846 326.5 595.613 326.34L595.833 324.6C596.046 324.787 596.423 325 596.963 325.24C597.503 325.48 598.146 325.6 598.893 325.6C599.526 325.6 600.009 325.493 600.343 325.28C600.683 325.067 600.853 324.767 600.853 324.38C600.853 324.04 600.743 323.767 600.523 323.56C600.309 323.347 600.049 323.18 599.743 323.06C599.443 322.933 599.159 322.833 598.893 322.76C598.446 322.64 597.983 322.49 597.503 322.31C597.029 322.123 596.629 321.847 596.303 321.48C595.976 321.113 595.813 320.6 595.813 319.94C595.813 319.44 595.933 318.967 596.173 318.52C596.413 318.067 596.803 317.7 597.343 317.42C597.883 317.14 598.599 317 599.493 317C600.146 317 600.676 317.07 601.083 317.21C601.496 317.343 601.853 317.487 602.153 317.64L601.933 319.28C601.646 319.04 601.313 318.837 600.933 318.67C600.553 318.503 600.086 318.42 599.533 318.42C598.973 318.42 598.516 318.527 598.163 318.74C597.809 318.947 597.633 319.28 597.633 319.74C597.633 320.2 597.819 320.527 598.193 320.72C598.573 320.913 599.146 321.127 599.913 321.36C600.153 321.427 600.429 321.523 600.743 321.65C601.063 321.777 601.373 321.947 601.673 322.16C601.973 322.373 602.219 322.653 602.413 323C602.613 323.34 602.713 323.767 602.713 324.28C602.713 324.713 602.609 325.157 602.403 325.61C602.196 326.057 601.823 326.433 601.283 326.74C600.743 327.047 599.973 327.2 598.973 327.2Z" fill="black"/>
<path d="M306.35 248.774V234.619C306.35 229.614 302.72 225.117 297.689 224.509C291.682 223.789 286.554 228.42 286.554 234.211V262.898C286.554 262.942 286.528 262.976 286.484 262.976C285.838 262.994 281 263.111 281 262.976V234.731C281 226.749 286.98 219.73 295.031 219.018C304.188 218.206 311.904 225.338 311.904 234.215L311.909 248.808" fill="#330F3F"/>
<path d="M299.526 237.566V248.24C299.526 253.244 303.156 257.741 308.187 258.349C314.194 259.07 319.322 254.438 319.322 248.648V219.318C319.322 219.274 319.348 219.24 319.392 219.24C320.038 219.222 324.876 219.105 324.876 219.24V248.131C324.876 256.114 318.896 263.133 310.846 263.844C301.688 264.656 293.972 257.524 293.972 248.648L293.968 237.531" fill="#330F3F"/>
</svg>
