<svg width="18" height="23" viewBox="0 0 18 23" fill="none" xmlns="http://www.w3.org/2000/svg">
<path d="M8.7025 12.7436C7.93835 12.7436 7.19135 12.517 6.55598 12.0925C5.92061 11.668 5.4254 11.0645 5.13297 10.3586C4.84054 9.65257 4.76403 8.87572 4.91311 8.12625C5.06219 7.37678 5.43016 6.68835 5.9705 6.14801C6.51084 5.60767 7.19927 5.23969 7.94875 5.09061C8.69822 4.94153 9.47506 5.01805 10.1811 5.31048C10.887 5.60291 11.4905 6.09812 11.915 6.73349C12.3395 7.36886 12.5661 8.11585 12.5661 8.88001C12.5649 9.90433 12.1575 10.8863 11.4331 11.6107C10.7088 12.335 9.72682 12.7424 8.7025 12.7436ZM8.7025 6.56183C8.24401 6.56183 7.79581 6.69779 7.41459 6.95251C7.03337 7.20724 6.73624 7.56929 6.56078 7.99288C6.38533 8.41647 6.33942 8.88258 6.42887 9.33226C6.51831 9.78195 6.7391 10.195 7.0633 10.5192C7.3875 10.8434 7.80057 11.0642 8.25025 11.1536C8.69993 11.2431 9.16604 11.1972 9.58963 11.0217C10.0132 10.8463 10.3753 10.5491 10.63 10.1679C10.8847 9.7867 11.0207 9.3385 11.0207 8.88001C11.0201 8.26538 10.7756 7.67609 10.341 7.24148C9.90642 6.80687 9.31713 6.56244 8.7025 6.56183Z" fill="#C4C4C4"/>
<path d="M8.70312 22.0163L2.1844 14.3285C2.09383 14.2131 2.00419 14.0969 1.9155 13.98C0.801982 12.5132 0.200435 10.7216 0.203134 8.88C0.203134 6.62566 1.09867 4.46365 2.69272 2.8696C4.28678 1.27554 6.44879 0.380005 8.70312 0.380005C10.9575 0.380005 13.1195 1.27554 14.7135 2.8696C16.3076 4.46365 17.2031 6.62566 17.2031 8.88C17.2058 10.7207 16.6045 12.5115 15.4915 13.9777L15.4908 13.98C15.4908 13.98 15.2589 14.2844 15.2242 14.3254L8.70312 22.0163ZM3.14877 13.0489C3.15031 13.0489 3.32959 13.2869 3.37054 13.3379L8.70312 19.6271L14.0427 13.3294C14.0767 13.2869 14.2575 13.0473 14.2583 13.0465C15.1679 11.8481 15.6594 10.3845 15.6577 8.88C15.6577 7.03554 14.925 5.26662 13.6207 3.9624C12.3165 2.65817 10.5476 1.92546 8.70312 1.92546C6.85867 1.92546 5.08975 2.65817 3.78552 3.9624C2.4813 5.26662 1.74859 7.03554 1.74859 8.88C1.74697 10.3855 2.2391 11.8499 3.14954 13.0489H3.14877Z" fill="#C4C4C4"/>
</svg>
