<svg width="20" height="20" viewBox="0 0 20 20" fill="none" xmlns="http://www.w3.org/2000/svg">
<path d="M19.4429 18.3324L13.2751 12.1646C14.2322 10.9272 14.7499 9.41433 14.7499 7.82309C14.7499 5.91835 14.0066 4.13236 12.6623 2.78574C11.3181 1.43912 9.52734 0.69812 7.62497 0.69812C5.7226 0.69812 3.93186 1.44149 2.58762 2.78574C1.241 4.12998 0.5 5.91835 0.5 7.82309C0.5 9.72546 1.24337 11.5162 2.58762 12.8604C3.93186 14.2071 5.72023 14.9481 7.62497 14.9481C9.21621 14.9481 10.7267 14.4303 11.9641 13.4756L18.1319 19.641C18.15 19.6591 18.1715 19.6735 18.1951 19.6833C18.2188 19.6931 18.2441 19.6981 18.2697 19.6981C18.2953 19.6981 18.3206 19.6931 18.3442 19.6833C18.3679 19.6735 18.3893 19.6591 18.4074 19.641L19.4429 18.6079C19.461 18.5898 19.4754 18.5684 19.4852 18.5447C19.495 18.5211 19.5 18.4958 19.5 18.4702C19.5 18.4446 19.495 18.4193 19.4852 18.3956C19.4754 18.372 19.461 18.3505 19.4429 18.3324ZM11.387 11.5851C10.38 12.5897 9.04521 13.1431 7.62497 13.1431C6.20473 13.1431 4.86998 12.5897 3.86299 11.5851C2.85837 10.5781 2.30499 9.24333 2.30499 7.82309C2.30499 6.40285 2.85837 5.06573 3.86299 4.06111C4.86998 3.05649 6.20473 2.50311 7.62497 2.50311C9.04521 2.50311 10.3823 3.05411 11.387 4.06111C12.3916 5.0681 12.9449 6.40285 12.9449 7.82309C12.9449 9.24333 12.3916 10.5805 11.387 11.5851Z" fill="#C4C4C4"/>
</svg>
