<svg width="34" height="34" viewBox="0 0 34 34" fill="none" xmlns="http://www.w3.org/2000/svg">
<g clip-path="url(#clip0_116_153)">
<path d="M4.76318 12.9289L25.3263 12.173C25.4385 12.1689 25.5495 12.1962 25.6469 12.252C25.7443 12.3077 25.8242 12.3896 25.8774 12.4884C25.9307 12.5871 25.9552 12.6988 25.9483 12.8108C25.9414 12.9228 25.9032 13.0306 25.8381 13.1221L13.9078 29.8889C13.8408 29.9827 13.7484 30.0553 13.6414 30.098C13.5344 30.1407 13.4174 30.1518 13.3042 30.1299C13.1911 30.108 13.0867 30.0541 13.0034 29.9745C12.92 29.8949 12.8613 29.7931 12.8342 29.6811L11.1656 22.7348C11.1387 22.6224 11.1447 22.5046 11.183 22.3955C11.2213 22.2864 11.2903 22.1907 11.3816 22.1198L18.0076 16.9802C18.0471 16.9496 18.0784 16.9097 18.0985 16.864C18.1187 16.8183 18.1272 16.7682 18.1232 16.7184L18.108 16.6447C18.0862 16.5805 18.0433 16.5256 17.9863 16.4889C17.9293 16.4522 17.8616 16.4359 17.7941 16.4425L17.7257 16.4575L9.74726 19.1853C9.63795 19.2224 9.52027 19.2273 9.40829 19.1993C9.29631 19.1712 9.19476 19.1116 9.11579 19.0274L4.34648 13.9417C4.26748 13.8576 4.21435 13.7525 4.19344 13.6391C4.17252 13.5256 4.18471 13.4085 4.22853 13.3018C4.27236 13.1951 4.34598 13.1032 4.44059 13.0372C4.53521 12.9712 4.64683 12.9338 4.76212 12.9295L4.76318 12.9289Z" fill="white"/>
</g>
<defs>
<clipPath id="clip0_116_153">
<rect width="24.0417" height="24.0417" fill="white" transform="translate(0.713867 12.3113) rotate(-28.3365)"/>
</clipPath>
</defs>
</svg>
