<svg width="16" height="18" viewBox="0 0 16 18" fill="none" xmlns="http://www.w3.org/2000/svg">
<path d="M15.1038 8.51937L8.5942 15.029C7.79673 15.8264 6.71512 16.2744 5.58732 16.2744C4.45953 16.2744 3.37792 15.8264 2.58045 15.029C1.78298 14.2315 1.33496 13.1499 1.33496 12.0221C1.33496 10.8943 1.78298 9.81267 2.58045 9.0152L9.09003 2.50562C9.62168 1.97397 10.3428 1.67529 11.0946 1.67529C11.8465 1.67529 12.5675 1.97397 13.0992 2.50562C13.6308 3.03727 13.9295 3.75834 13.9295 4.5102C13.9295 5.26207 13.6308 5.98314 13.0992 6.51478L6.58253 13.0244C6.45091 13.156 6.29465 13.2604 6.12268 13.3316C5.9507 13.4029 5.76638 13.4395 5.58024 13.4395C5.3941 13.4395 5.20978 13.4029 5.0378 13.3316C4.86583 13.2604 4.70957 13.156 4.57795 13.0244C4.44633 12.8927 4.34192 12.7365 4.27068 12.5645C4.19945 12.3925 4.16279 12.2082 4.16279 12.0221C4.16279 11.8359 4.19945 11.6516 4.27068 11.4796C4.34192 11.3077 4.44633 11.1514 4.57795 11.0198L10.5917 5.01312" stroke="#2A72CC" stroke-width="1.5" stroke-linecap="round" stroke-linejoin="round"/>
</svg>
