<svg xmlns="http://www.w3.org/2000/svg" viewBox="0 0 107.75 141.9"><defs><style>.cls-1{fill:#9c8ec1;}.cls-2{fill:#38382b;}.cls-3{fill:#fdfdfd;}.cls-4{fill:none;stroke:#fff;stroke-miterlimit:10;stroke-width:2px;}</style></defs><title>blog-placholder</title><g id="Layer_2" data-name="Layer 2"><g id="Layer_1-2" data-name="Layer 1"><path class="cls-1" d="M102,108H6a5.75,5.75,0,0,1-5.76-5.75V5.75A5.76,5.76,0,0,1,6,0h96a5.76,5.76,0,0,1,5.76,5.75v96.53A5.75,5.75,0,0,1,102,108"/><path class="cls-2" d="M0,128.28a8.37,8.37,0,0,1,2.54-6.14,8.34,8.34,0,0,1,6.13-2.53,8.34,8.34,0,0,1,6.13,2.53,8.68,8.68,0,0,1,0,12.27A8.35,8.35,0,0,1,8.67,137a8.36,8.36,0,0,1-5-1.53v6.48H0Zm12.17,3.5a4.94,4.94,0,0,0,0-7,4.78,4.78,0,0,0-3.5-1.45,4.78,4.78,0,0,0-3.5,1.45,4.94,4.94,0,0,0,0,7,4.74,4.74,0,0,0,3.5,1.45,4.74,4.74,0,0,0,3.5-1.45"/><path class="cls-2" d="M19.82,128.28a8.64,8.64,0,0,1,8.67-8.67v3.71a5,5,0,0,0-5,5V137H19.82Z"/><path class="cls-2" d="M39.63,137a8.67,8.67,0,1,1,6.14-14.81A8.68,8.68,0,0,1,39.63,137m3.51-5.17a5,5,0,1,0-3.51,1.45,4.81,4.81,0,0,0,3.51-1.45"/><path class="cls-2" d="M50.78,128.28a8.68,8.68,0,0,1,14.8-6.14A8.68,8.68,0,0,1,54.5,135.42v6.48H50.78ZM63,131.78a4.95,4.95,0,1,0-3.5,1.45,4.78,4.78,0,0,0,3.5-1.45"/><path class="cls-2" d="M70.6,128.28a8.61,8.61,0,1,1,3.71,7.14v6.48H70.6Zm12.17,3.5a5,5,0,1,0-3.5,1.45,4.77,4.77,0,0,0,3.5-1.45"/><path class="cls-2" d="M94.13,128.28a5,5,0,0,0,9.91,0v-8.67h3.71v8.67a8.67,8.67,0,0,1-17.34,0v-8.67h3.72Z"/><path class="cls-3" d="M90.49,80.81c-.43-.15-.86-.28-1.28-.45a51.11,51.11,0,0,1-11.66-6.07c-.21-.15-.4-.31-.6-.46-1.14-.9-1.17-.91-2.43-.17a54,54,0,0,1-14,5.72A61.33,61.33,0,0,1,52.76,81c-9.53,1.16-18.75.18-27.34-4.46a25.88,25.88,0,0,1-8.58-7.26,19.4,19.4,0,0,1-4-9.76C12.3,54,14,49,17,44.34a42,42,0,0,1,9.25-10.08,52.61,52.61,0,0,1,10.26-6.44,49.61,49.61,0,0,1,12.31-4.2c2.53-.48,5-1.13,7.59-1.42,2.88-.34,5.79-.45,8.69-.52a41.24,41.24,0,0,1,12.1,1.54,26.28,26.28,0,0,1,12.34,7,19.87,19.87,0,0,1,5.26,10c1.61,8.24-1,15.31-6,21.65A71.34,71.34,0,0,1,82.87,68c-.39.39-.53.73-.3,1.17A35.05,35.05,0,0,0,85,73.68c1.6,2.24,3.43,4.31,5.17,6.46.13.16.24.35.36.53l-.08.14"/><path class="cls-4" d="M90.49,80.81c-.43-.15-.86-.28-1.28-.45a51.11,51.11,0,0,1-11.66-6.07c-.21-.15-.4-.31-.6-.46-1.14-.9-1.17-.91-2.43-.17a54,54,0,0,1-14,5.72A61.33,61.33,0,0,1,52.76,81c-9.53,1.16-18.75.18-27.34-4.46a25.88,25.88,0,0,1-8.58-7.26,19.4,19.4,0,0,1-4-9.76C12.3,54,14,49,17,44.34a42,42,0,0,1,9.25-10.08,52.61,52.61,0,0,1,10.26-6.44,49.61,49.61,0,0,1,12.31-4.2c2.53-.48,5-1.13,7.59-1.42,2.88-.34,5.79-.45,8.69-.52a41.24,41.24,0,0,1,12.1,1.54,26.28,26.28,0,0,1,12.34,7,19.87,19.87,0,0,1,5.26,10c1.61,8.24-1,15.31-6,21.65A71.34,71.34,0,0,1,82.87,68c-.39.39-.53.73-.3,1.17A35.05,35.05,0,0,0,85,73.68c1.6,2.24,3.43,4.31,5.17,6.46.13.16.24.35.36.53Z"/></g></g></svg>