<svg width="18" height="21" viewBox="0 0 18 21" fill="none" xmlns="http://www.w3.org/2000/svg">
<path d="M16 2.26172H15V0.261719H13V2.26172H5V0.261719H3V2.26172H2C0.89 2.26172 0.00999999 3.16172 0.00999999 4.26172L0 18.2617C0 18.7922 0.210714 19.3009 0.585786 19.6759C0.960859 20.051 1.46957 20.2617 2 20.2617H16C17.1 20.2617 18 19.3617 18 18.2617V4.26172C18 3.16172 17.1 2.26172 16 2.26172ZM16 18.2617H2V8.26172H16V18.2617ZM16 6.26172H2V4.26172H16V6.26172ZM6 12.2617H4V10.2617H6V12.2617ZM10 12.2617H8V10.2617H10V12.2617ZM14 12.2617H12V10.2617H14V12.2617ZM6 16.2617H4V14.2617H6V16.2617ZM10 16.2617H8V14.2617H10V16.2617ZM14 16.2617H12V14.2617H14V16.2617Z" fill="#A7A2B3"/>
</svg>
