<svg width="17" height="15" viewBox="0 0 17 15" fill="currentcolor" xmlns="http://www.w3.org/2000/svg">
<path d="M3.38433 14.9868C2.55743 14.9869 1.76365 14.6619 1.17433 14.0818L1.10933 14.0168C0.813228 13.7279 0.577957 13.3826 0.417377 13.0013C0.256797 12.6201 0.174157 12.2105 0.174326 11.7968C0.173279 11.3489 0.261129 10.9053 0.432785 10.4916C0.604441 10.0779 0.85649 9.70238 1.17433 9.38681L8.92433 1.7218C9.71176 0.901938 10.7897 0.424181 11.926 0.391448C13.0623 0.358715 14.166 0.773627 14.9993 1.5468C15.3752 1.9217 15.6726 2.36766 15.8743 2.85868C16.0761 3.3497 16.1781 3.87597 16.1743 4.40681C16.1699 4.99966 16.0483 5.58579 15.8166 6.13152C15.585 6.67724 15.2477 7.17181 14.8243 7.58681L7.85933 14.4868C7.81603 14.545 7.76058 14.5932 7.69682 14.6278C7.63305 14.6625 7.56251 14.6828 7.49009 14.6875C7.41767 14.6921 7.3451 14.681 7.27743 14.6547C7.20976 14.6285 7.14861 14.5879 7.09823 14.5357C7.04784 14.4834 7.00942 14.4209 6.98565 14.3523C6.96188 14.2837 6.95331 14.2108 6.96055 14.1386C6.96779 14.0664 6.99067 13.9966 7.02758 13.9342C7.0645 13.8717 7.11457 13.818 7.17433 13.7768L14.1193 6.87681C14.4492 6.55484 14.7121 6.17091 14.8932 5.74703C15.0742 5.32316 15.1698 4.8677 15.1743 4.40681C15.178 4.00793 15.102 3.61233 14.9509 3.24317C14.7998 2.874 14.5766 2.53867 14.2943 2.2568C13.6482 1.66824 12.7969 1.35681 11.9236 1.38954C11.0502 1.42227 10.2246 1.79653 9.62433 2.4318L1.89933 10.0968C1.67168 10.3179 1.49033 10.582 1.36586 10.8739C1.24138 11.1658 1.17627 11.4795 1.17433 11.7968C1.17326 12.0754 1.22751 12.3515 1.33394 12.609C1.44037 12.8665 1.59685 13.1003 1.79433 13.2968L1.85933 13.3618C2.3067 13.7738 2.89795 13.9936 3.5058 13.974C4.11365 13.9543 4.68948 13.6968 5.10933 13.2568L11.7843 6.65681C11.9106 6.52917 12.0101 6.37765 12.077 6.21109C12.144 6.04454 12.1771 5.8663 12.1743 5.68681C12.1754 5.5309 12.1455 5.37634 12.0863 5.23213C12.027 5.08791 11.9397 4.95693 11.8293 4.84681C11.5768 4.61526 11.2434 4.4923 10.901 4.50446C10.5586 4.51662 10.2348 4.66293 9.99933 4.91181L5.39933 9.47181C5.30517 9.56529 5.17774 9.61755 5.04506 9.61708C4.91238 9.61662 4.78532 9.56346 4.69183 9.46931C4.59834 9.37515 4.54608 9.24772 4.54655 9.11504C4.54702 8.98236 4.60017 8.85529 4.69433 8.76181L9.31433 4.18681C9.73781 3.75297 10.3149 3.503 10.921 3.49084C11.5272 3.47868 12.1138 3.7053 12.5543 4.1218C12.7569 4.32805 12.9162 4.57279 13.0227 4.84158C13.1291 5.11037 13.1807 5.39776 13.1743 5.68681C13.1738 5.99806 13.1112 6.30609 12.9901 6.59285C12.8691 6.8796 12.692 7.13932 12.4693 7.35681L5.81433 13.9768C5.16927 14.6208 4.29585 14.9839 3.38433 14.9868Z" fill="#9C8EC1"/>
</svg>
