<svg width="17" height="17" viewBox="0 0 17 17" fill="none" xmlns="http://www.w3.org/2000/svg">
<path d="M12.5024 10.6182L11.5303 9.64605L13.4746 7.70043C15.0861 6.0903 15.3033 3.69643 13.9613 2.35305C12.6179 1.01105 10.2241 1.2283 8.61256 2.8398L6.66969 4.78405L5.69756 3.81193L7.64181 1.86768C9.79094 -0.28007 13.0552 -0.49732 14.9348 1.38093C16.8144 3.26055 16.5958 6.52481 14.4481 8.67393L12.5038 10.6182H12.5024ZM10.5582 12.5624L8.61394 14.5067C6.46481 16.6544 3.20056 16.8717 1.32094 14.9934C-0.558686 13.1138 -0.340061 9.84956 1.80769 7.70043L3.75194 5.75618L4.72406 6.7283L2.77981 8.67393C1.16831 10.2841 0.951064 12.6779 2.29306 14.0213C3.63644 15.3633 6.03031 15.1461 7.64181 13.5346L9.58606 11.5903L10.5582 12.5624ZM10.5582 4.78405L11.5303 5.75618L5.69619 11.5903L4.72406 10.6182L10.5582 4.78405Z" fill="#816A89"/>
</svg>
