<svg width="79" height="20" viewBox="0 0 79 20" fill="none" xmlns="http://www.w3.org/2000/svg">
<path d="M5.2311 16.3259C3.7111 16.3259 2.50443 15.8726 1.6111 14.9659C0.717762 14.0659 0.271095 12.8059 0.271095 11.1859C0.271095 10.0926 0.471095 9.0826 0.871095 8.15594C1.2711 7.2226 1.8211 6.4126 2.5211 5.72594C3.22776 5.0326 4.03443 4.4926 4.9411 4.10594C5.84776 3.71927 6.80443 3.52594 7.8111 3.52594C9.38443 3.52594 10.6078 3.98594 11.4811 4.90594C12.3544 5.81927 12.7911 7.04594 12.7911 8.58594C12.7911 9.25927 12.6978 9.9126 12.5111 10.5459C12.3244 11.1726 12.0211 11.6893 11.6011 12.0959C11.1878 12.5026 10.6378 12.7059 9.9511 12.7059C9.70443 12.7059 9.49776 12.6493 9.3311 12.5359C9.1711 12.4159 9.0911 12.1326 9.0911 11.6859C9.0911 11.0926 9.2111 10.4326 9.4511 9.70594C9.69776 8.9726 9.94443 8.0726 10.1911 7.00594C9.94443 6.74594 9.61776 6.50594 9.2111 6.28594C8.80443 6.05927 8.32443 5.94594 7.7711 5.94594C7.14443 5.94594 6.52776 6.10594 5.9211 6.42594C5.3211 6.74594 4.77443 7.17594 4.2811 7.71594C3.79443 8.25594 3.40443 8.85594 3.1111 9.51594C2.81776 10.1759 2.6711 10.8459 2.6711 11.5259C2.6711 11.9126 2.72776 12.2793 2.8411 12.6259C2.9611 12.9659 3.15443 13.2459 3.4211 13.4659C3.68776 13.6793 4.04443 13.7859 4.4911 13.7859C4.87776 13.7859 5.29443 13.6993 5.7411 13.5259C6.19443 13.3459 6.62776 13.0826 7.0411 12.7359C7.45443 12.3893 7.80443 11.9659 8.0911 11.4659C8.08443 11.5326 8.0711 11.6293 8.0511 11.7559C8.03776 11.8759 8.0311 12.0126 8.0311 12.1659C8.0311 12.3793 8.06443 12.6093 8.1311 12.8559C8.20443 13.1026 8.32443 13.3126 8.4911 13.4859C8.65776 13.6593 8.8911 13.7459 9.1911 13.7459C9.40443 13.7459 9.6511 13.6959 9.9311 13.5959C10.2178 13.4959 10.5044 13.3659 10.7911 13.2059C11.0844 13.0393 11.3444 12.8593 11.5711 12.6659L11.6311 12.7259C11.1978 13.4393 10.6511 14.0659 9.9911 14.6059C9.3311 15.1459 8.59443 15.5659 7.7811 15.8659C6.97443 16.1726 6.12443 16.3259 5.2311 16.3259ZM5.1511 12.4659C4.84443 12.4659 4.6211 12.3393 4.4811 12.0859C4.3411 11.8259 4.2711 11.5059 4.2711 11.1259C4.2711 10.5793 4.3911 10.0693 4.6311 9.59594C4.8711 9.11594 5.17776 8.69594 5.5511 8.33594C5.9311 7.96927 6.33443 7.6826 6.7611 7.47594C7.18776 7.26927 7.58443 7.16594 7.9511 7.16594C8.06443 7.16594 8.2211 7.18594 8.4211 7.22594C8.62776 7.26594 8.7711 7.3926 8.8511 7.60594C8.75776 8.13927 8.57443 8.68927 8.3011 9.25594C8.03443 9.8226 7.7211 10.3493 7.3611 10.8359C7.0011 11.3226 6.62443 11.7159 6.2311 12.0159C5.84443 12.3159 5.48443 12.4659 5.1511 12.4659ZM15.5828 14.5859V0.585937H20.2028C21.1428 0.585937 21.9695 0.735937 22.6828 1.03594C23.3961 1.33594 23.9495 1.81927 24.3428 2.48594C24.7428 3.1526 24.9428 4.0326 24.9428 5.12594C24.9428 6.19927 24.7428 7.0726 24.3428 7.74594C23.9495 8.4126 23.3961 8.9026 22.6828 9.21594C21.9695 9.52927 21.1428 9.68594 20.2028 9.68594H17.5828V14.5859H15.5828ZM17.5828 7.98594H19.9228C20.9428 7.98594 21.7061 7.75594 22.2128 7.29594C22.7261 6.82927 22.9828 6.1126 22.9828 5.14594C22.9828 4.1726 22.7395 3.4526 22.2528 2.98594C21.7728 2.51927 20.9961 2.28594 19.9228 2.28594H17.5828V7.98594ZM26.6919 14.5859V4.78594H28.1719L28.3919 6.40594C28.8919 5.78594 29.3685 5.32927 29.8219 5.03594C30.2819 4.73594 30.7719 4.58594 31.2919 4.58594C31.4585 4.58594 31.6119 4.60594 31.7519 4.64594L31.5719 6.62594C31.4852 6.60594 31.3919 6.5926 31.2919 6.58594C31.1985 6.5726 31.0919 6.56594 30.9719 6.56594C30.4519 6.56594 29.9719 6.6826 29.5319 6.91594C29.0985 7.1426 28.7919 7.3926 28.6119 7.66594V14.5859H26.6919ZM37.2461 14.7859C36.2194 14.7859 35.3428 14.5593 34.6161 14.1059C33.8961 13.6459 33.3428 13.0326 32.9561 12.2659C32.5761 11.4926 32.3861 10.6326 32.3861 9.68594C32.3861 8.73927 32.5761 7.8826 32.9561 7.11594C33.3428 6.3426 33.8961 5.72927 34.6161 5.27594C35.3428 4.81594 36.2194 4.58594 37.2461 4.58594C38.2661 4.58594 39.1394 4.81594 39.8661 5.27594C40.5928 5.72927 41.1461 6.3426 41.5261 7.11594C41.9128 7.8826 42.1061 8.73927 42.1061 9.68594C42.1061 10.6326 41.9128 11.4926 41.5261 12.2659C41.1461 13.0326 40.5928 13.6459 39.8661 14.1059C39.1394 14.5593 38.2661 14.7859 37.2461 14.7859ZM37.2461 13.1859C38.2194 13.1859 38.9661 12.8793 39.4861 12.2659C40.0061 11.6459 40.2661 10.7859 40.2661 9.68594C40.2661 8.58594 40.0061 7.72927 39.4861 7.11594C38.9661 6.49594 38.2194 6.18594 37.2461 6.18594C36.2794 6.18594 35.5328 6.49594 35.0061 7.11594C34.4861 7.72927 34.2261 8.58594 34.2261 9.68594C34.2261 10.7859 34.4861 11.6459 35.0061 12.2659C35.5328 12.8793 36.2794 13.1859 37.2461 13.1859ZM44.1622 19.4259V4.78594H45.5622L45.8822 7.02594L45.3822 6.66594C45.7955 6.02594 46.3055 5.51927 46.9122 5.14594C47.5189 4.7726 48.2622 4.58594 49.1422 4.58594C50.0355 4.58594 50.8022 4.8126 51.4422 5.26594C52.0822 5.71927 52.5722 6.3326 52.9122 7.10594C53.2522 7.8726 53.4222 8.7326 53.4222 9.68594C53.4222 10.6393 53.2622 11.5026 52.9422 12.2759C52.6222 13.0426 52.1455 13.6526 51.5122 14.1059C50.8789 14.5593 50.0889 14.7859 49.1422 14.7859C48.3622 14.7859 47.6555 14.6259 47.0222 14.3059C46.3955 13.9793 45.9422 13.4926 45.6622 12.8459L45.9622 12.4859V19.4259H44.1622ZM48.8022 13.1859C49.6755 13.1859 50.3555 12.8793 50.8422 12.2659C51.3355 11.6459 51.5822 10.7859 51.5822 9.68594C51.5822 8.58594 51.3355 7.72927 50.8422 7.11594C50.3555 6.49594 49.6755 6.18594 48.8022 6.18594C48.2622 6.18594 47.7689 6.31594 47.3222 6.57594C46.8822 6.82927 46.5289 7.21594 46.2622 7.73594C45.9955 8.24927 45.8622 8.89927 45.8622 9.68594C45.8622 10.5059 45.9955 11.1726 46.2622 11.6859C46.5289 12.1993 46.8822 12.5793 47.3222 12.8259C47.7689 13.0659 48.2622 13.1859 48.8022 13.1859ZM55.495 19.4259V4.78594H56.895L57.215 7.02594L56.715 6.66594C57.1283 6.02594 57.6383 5.51927 58.245 5.14594C58.8517 4.7726 59.595 4.58594 60.475 4.58594C61.3683 4.58594 62.135 4.8126 62.775 5.26594C63.415 5.71927 63.905 6.3326 64.245 7.10594C64.585 7.8726 64.755 8.7326 64.755 9.68594C64.755 10.6393 64.595 11.5026 64.275 12.2759C63.955 13.0426 63.4783 13.6526 62.845 14.1059C62.2117 14.5593 61.4217 14.7859 60.475 14.7859C59.695 14.7859 58.9883 14.6259 58.355 14.3059C57.7283 13.9793 57.275 13.4926 56.995 12.8459L57.295 12.4859V19.4259H55.495ZM60.135 13.1859C61.0083 13.1859 61.6883 12.8793 62.175 12.2659C62.6683 11.6459 62.915 10.7859 62.915 9.68594C62.915 8.58594 62.6683 7.72927 62.175 7.11594C61.6883 6.49594 61.0083 6.18594 60.135 6.18594C59.595 6.18594 59.1017 6.31594 58.655 6.57594C58.215 6.82927 57.8617 7.21594 57.595 7.73594C57.3283 8.24927 57.195 8.89927 57.195 9.68594C57.195 10.5059 57.3283 11.1726 57.595 11.6859C57.8617 12.1993 58.215 12.5793 58.655 12.8259C59.1017 13.0659 59.595 13.1859 60.135 13.1859ZM72.4962 14.8659C71.1829 14.8659 70.0962 14.6159 69.2362 14.1159C68.3829 13.6093 67.7462 12.8926 67.3262 11.9659C66.9062 11.0326 66.6962 9.92594 66.6962 8.64594V0.585937H68.5962V8.12594C68.5962 8.76594 68.6462 9.38594 68.7462 9.98594C68.8462 10.5859 69.0296 11.1226 69.2962 11.5959C69.5696 12.0693 69.9629 12.4459 70.4762 12.7259C70.9962 13.0059 71.6696 13.1459 72.4962 13.1459C73.3296 13.1459 74.0029 13.0059 74.5162 12.7259C75.0296 12.4459 75.4196 12.0693 75.6862 11.5959C75.9596 11.1159 76.1462 10.5759 76.2462 9.97594C76.3462 9.37594 76.3962 8.75927 76.3962 8.12594V0.585937H78.2962V8.64594C78.2962 9.92594 78.0862 11.0326 77.6662 11.9659C77.2462 12.8926 76.6062 13.6093 75.7462 14.1159C74.8929 14.6159 73.8096 14.8659 72.4962 14.8659Z" fill="#6480E1"/>
</svg>
