<svg width="29" height="30" viewBox="0 0 29 30" fill="none" xmlns="http://www.w3.org/2000/svg">
<g clip-path="url(#clip0_1929_1583)">
<path d="M14.4863 1.40869C21.9939 1.40869 28.0801 7.49478 28.0801 15.0024C28.0801 22.5101 21.9939 28.5962 14.4863 28.5962C6.97873 28.5962 0.89258 22.51 0.892579 15.0024C0.892579 7.49484 6.97861 1.40869 14.4863 1.40869V1.40869ZM6.15574 23.333C8.22146 25.3925 10.9799 26.6091 13.8937 26.7458C16.8074 26.8825 19.6677 25.9295 21.9171 24.0725C24.1666 22.2155 25.6441 19.5875 26.0618 16.7006C26.4794 13.8138 25.8074 10.8748 24.1765 8.45637C22.5456 6.03796 20.0727 4.31337 17.2397 3.61863C14.4067 2.92389 11.4165 3.30877 8.85183 4.69828C6.28711 6.0878 4.33159 8.3824 3.36629 11.135C2.40099 13.8876 2.49506 16.9009 3.63019 19.588C4.2218 20.988 5.07951 22.2598 6.15574 23.333V23.333Z" fill="#595959"/>
<path d="M15.4268 9.84508L11.1757 14.0962L21.7422 14.0962L21.7422 15.9087L11.1757 15.9087L15.4268 20.1598L14.1452 21.4414L7.70619 15.0024L14.1452 8.56348L15.4268 9.84508Z" fill="#595959"/>
</g>
<defs>
<clipPath id="clip0_1929_1583">
<rect width="29" height="29" fill="white" transform="matrix(-1 8.74228e-08 8.74228e-08 1 29 0.5)"/>
</clipPath>
</defs>
</svg>
