<svg width="30" height="30" viewBox="0 0 30 30" fill="none" xmlns="http://www.w3.org/2000/svg">
<path d="M15.0137 28.5913C7.50607 28.5913 1.41992 22.5052 1.41992 14.9976C1.41992 7.4899 7.50607 1.40381 15.0137 1.40381C22.5213 1.40381 28.6074 7.48996 28.6074 14.9976C28.6074 22.5052 22.5214 28.5913 15.0137 28.5913ZM23.3443 6.66697C21.2785 4.60752 18.5201 3.39091 15.6063 3.25421C12.6926 3.11751 9.83235 4.07051 7.58288 5.92751C5.33342 7.78451 3.8559 10.4125 3.43823 13.2994C3.02055 16.1862 3.69264 19.1252 5.32353 21.5436C6.95442 23.962 9.42729 25.6866 12.2603 26.3814C15.0933 27.0761 18.0835 26.6912 20.6482 25.3017C23.2129 23.9122 25.1684 21.6176 26.1337 18.865C27.099 16.1124 27.0049 13.0991 25.8698 10.412C25.2782 9.01204 24.4205 7.74016 23.3443 6.66697Z" fill="#595959"/>
<path d="M14.0732 20.1549L18.3243 15.9038H7.75781V14.0913H18.3243L14.0732 9.8402L15.3548 8.5586L21.7938 14.9976L15.3548 21.4365L14.0732 20.1549Z" fill="#595959"/>
</svg>
