<svg width="20" height="21" viewBox="0 0 20 21" fill="none" xmlns="http://www.w3.org/2000/svg">
<path id="Vector" d="M9.99 0.261719C4.47 0.261719 0 4.74172 0 10.2617C0 15.7817 4.47 20.2617 9.99 20.2617C15.52 20.2617 20 15.7817 20 10.2617C20 4.74172 15.52 0.261719 9.99 0.261719ZM10 18.2617C5.58 18.2617 2 14.6817 2 10.2617C2 5.84172 5.58 2.26172 10 2.26172C14.42 2.26172 18 5.84172 18 10.2617C18 14.6817 14.42 18.2617 10 18.2617ZM9.78 5.26172H9.72C9.32 5.26172 9 5.58172 9 5.98172V10.7017C9 11.0517 9.18 11.3817 9.49 11.5617L13.64 14.0517C13.98 14.2517 14.42 14.1517 14.62 13.8117C14.6702 13.7307 14.7036 13.6405 14.7182 13.5463C14.7328 13.4522 14.7283 13.3561 14.705 13.2637C14.6817 13.1713 14.64 13.0846 14.5824 13.0086C14.5249 12.9327 14.4526 12.8691 14.37 12.8217L10.5 10.5217V5.98172C10.5 5.58172 10.18 5.26172 9.78 5.26172Z" fill="#A7A2B3"/>
</svg>
