<?xml version="1.0" standalone="no"?>
<!DOCTYPE svg PUBLIC "-//W3C//DTD SVG 20010904//EN"
 "http://www.w3.org/TR/2001/REC-SVG-20010904/DTD/svg10.dtd">
<svg version="1.0" xmlns="http://www.w3.org/2000/svg"
 width="250.000000pt" height="250.000000pt" viewBox="0 0 250.000000 250.000000"
 preserveAspectRatio="xMidYMid meet">
<metadata>
Created by potrace 1.14, written by Peter Selinger 2001-2017
</metadata>
<g transform="translate(0.000000,250.000000) scale(0.100000,-0.100000)"
fill="#000000" stroke="none">
<path d="M0 1250 l0 -1250 1250 0 1250 0 0 1250 0 1250 -1250 0 -1250 0 0
-1250z m1181 821 c165 -53 315 -202 371 -370 21 -62 23 -87 26 -403 l3 -338
-105 0 -105 0 -3 313 c-3 296 -5 315 -26 367 -51 125 -142 206 -266 237 -159
39 -325 -38 -407 -189 l-34 -63 -5 -605 -5 -605 -105 0 -105 0 0 595 0 595 23
70 c69 207 226 361 418 410 82 20 239 14 325 -14z m887 -598 l-3 -618 -29 -75
c-134 -351 -494 -496 -821 -332 -87 44 -197 152 -243 239 -61 116 -72 186 -72
460 l0 243 105 0 105 0 0 -202 c0 -112 5 -232 11 -267 21 -133 99 -238 217
-294 58 -28 77 -32 147 -31 114 1 182 29 261 108 43 43 68 79 85 121 l24 60 3
603 3 602 105 0 105 0 -3 -617z"/>
</g>
</svg>
