<svg width="613" height="470" viewBox="0 0 613 470" fill="none" xmlns="http://www.w3.org/2000/svg">
<path d="M996.035 62.7675C1007.96 78.3283 1016.88 89.9775 1023.36 99.8907C1029.84 109.798 1033.85 117.944 1035.96 126.489C1039.24 139.784 1039.24 153.678 1035.96 166.973C1033.85 175.518 1029.84 183.664 1023.36 193.571C1016.88 203.484 1007.96 215.134 996.035 230.695L836.946 438.322C821.198 458.874 813.381 469.067 803.452 476.279C795.7 481.908 787.049 486.179 777.866 488.907C766.102 492.403 753.257 492.408 727.365 492.408L333.635 492.408C307.743 492.408 294.898 492.403 283.134 488.907C273.951 486.179 265.299 481.908 257.548 476.279C247.618 469.067 239.802 458.874 224.054 438.322L64.9649 230.694C53.0417 215.134 44.1163 203.484 37.6379 193.571C31.1632 183.664 27.152 175.518 25.0437 166.973C21.763 153.678 21.763 139.784 25.0437 126.488C27.152 117.944 31.1632 109.798 37.6379 99.8906C44.1163 89.9774 53.0418 78.3283 64.965 62.7674L224.054 -144.86C239.802 -165.412 247.618 -175.605 257.548 -182.817C265.299 -188.446 273.951 -192.717 283.134 -195.446C294.898 -198.941 307.743 -198.946 333.635 -198.946L727.365 -198.946C753.257 -198.946 766.102 -198.941 777.866 -195.445C787.049 -192.717 795.701 -188.446 803.452 -182.817C813.382 -175.605 821.198 -165.412 836.946 -144.86L996.035 62.7675Z" stroke="#6480E1" stroke-opacity="0.51"/>
<path d="M995.816 70.1213C1007.78 85.7003 1016.73 97.3629 1023.23 107.288C1029.73 117.208 1033.75 125.365 1035.87 133.922C1039.16 147.237 1039.16 161.153 1035.87 174.468C1033.75 183.025 1029.73 191.181 1023.23 201.101C1016.73 211.027 1007.78 222.689 995.816 238.268L836.948 445.177C821.198 465.689 813.381 475.862 803.458 483.059C795.711 488.677 787.067 492.938 777.893 495.661C766.141 499.149 753.312 499.154 727.451 499.154L333.549 499.154C307.688 499.154 294.859 499.149 283.107 495.661C273.933 492.938 265.289 488.676 257.542 483.059C247.618 475.862 239.802 465.689 224.052 445.177L65.1836 238.268C53.2218 222.689 44.2674 211.027 37.768 201.101C31.2723 191.181 27.2484 183.025 25.1335 174.468C21.843 161.153 21.843 147.237 25.1335 133.922C27.2484 125.365 31.2723 117.208 37.7681 107.288C44.2674 97.3629 53.2218 85.7002 65.1836 70.1213L224.052 -136.788C239.802 -157.299 247.619 -167.472 257.542 -174.669C265.289 -180.287 273.933 -184.548 283.107 -187.271C294.859 -190.759 307.688 -190.764 333.549 -190.764L727.451 -190.764C753.312 -190.764 766.141 -190.759 777.893 -187.271C787.067 -184.548 795.711 -180.287 803.458 -174.669C813.381 -167.472 821.198 -157.299 836.948 -136.788L995.816 70.1213Z" stroke="#6480E1" stroke-opacity="0.51"/>
<path d="M997.035 79.0125C1008.96 94.5734 1017.88 106.223 1024.36 116.136C1030.84 126.043 1034.85 134.189 1036.96 142.734C1040.24 156.029 1040.24 169.923 1036.96 183.218C1034.85 191.763 1030.84 199.909 1024.36 209.816C1017.88 219.73 1008.96 231.379 997.035 246.94L837.946 454.567C822.198 475.119 814.381 485.312 804.452 492.524C796.7 498.153 788.049 502.424 778.866 505.152C767.102 508.648 754.257 508.653 728.365 508.653L334.635 508.653C308.743 508.653 295.898 508.648 284.134 505.152C274.951 502.424 266.299 498.153 258.548 492.524C248.618 485.312 240.802 475.119 225.054 454.567L65.9649 246.94C54.0417 231.379 45.1163 219.729 38.6379 209.816C32.1632 199.909 28.152 191.763 26.0437 183.218C22.763 169.923 22.763 156.029 26.0437 142.734C28.152 134.189 32.1632 126.043 38.6379 116.136C45.1163 106.222 54.0418 94.5734 65.965 79.0124L225.054 -128.615C240.802 -149.167 248.618 -159.36 258.548 -166.572C266.299 -172.201 274.951 -176.472 284.134 -179.2C295.898 -182.696 308.743 -182.701 334.635 -182.701L728.365 -182.701C754.257 -182.701 767.102 -182.696 778.866 -179.2C788.049 -176.472 796.701 -172.201 804.452 -166.572C814.382 -159.36 822.198 -149.167 837.946 -128.615L997.035 79.0125Z" stroke="#6480E1" stroke-opacity="0.51"/>
<path d="M998.237 86.6381C1010.12 102.182 1019.02 113.819 1025.48 123.721C1031.94 133.617 1035.94 141.753 1038.04 150.286C1041.31 163.563 1041.31 177.437 1038.04 190.714C1035.94 199.247 1031.94 207.383 1025.48 217.279C1019.02 227.181 1010.12 238.818 998.237 254.362L838.944 462.655C823.197 483.245 815.381 493.457 805.446 500.683C797.691 506.322 789.032 510.601 779.841 513.335C768.066 516.838 755.206 516.843 729.285 516.843L335.715 516.843C309.793 516.843 296.934 516.838 285.159 513.335C275.968 510.601 267.309 506.322 259.554 500.683C249.618 493.457 241.803 483.246 226.056 462.655L66.7632 254.362C54.8757 238.818 45.9769 227.181 39.5177 217.279C33.0622 207.383 29.063 199.247 26.9607 190.714C23.6894 177.437 23.6894 163.563 26.9607 150.286C29.063 141.753 33.0622 133.617 39.5177 123.721C45.9769 113.819 54.8757 102.182 66.7632 86.6381L226.056 -121.655C241.803 -142.245 249.618 -152.457 259.554 -159.682C267.309 -165.322 275.968 -169.601 285.159 -172.335C296.934 -175.838 309.794 -175.843 335.715 -175.843L729.285 -175.843C755.206 -175.843 768.066 -175.838 779.841 -172.335C789.032 -169.601 797.691 -165.322 805.446 -159.682C815.382 -152.457 823.197 -142.245 838.944 -121.655L998.237 86.6381Z" stroke="#6480E1" stroke-opacity="0.51"/>
</svg>
