<svg width="531" height="342" viewBox="0 0 531 342" fill="none" xmlns="http://www.w3.org/2000/svg">
<mask id="mask0_114_134" style="mask-type:alpha" maskUnits="userSpaceOnUse" x="0" y="0" width="531" height="342">
<path d="M0 69.66C0 44.7658 0 32.3187 4.99808 22.879C9.03148 15.2612 15.2612 9.03148 22.879 4.99808C32.3187 0 44.7658 0 69.66 0H461.34C486.234 0 498.681 0 508.121 4.99808C515.739 9.03148 521.969 15.2612 526.002 22.879C531 32.3187 531 44.7658 531 69.66V272.34C531 297.234 531 309.681 526.002 319.121C521.969 326.739 515.739 332.969 508.121 337.002C498.681 342 486.234 342 461.34 342H69.66C44.7658 342 32.3187 342 22.879 337.002C15.2612 332.969 9.03148 326.739 4.99808 319.121C0 309.681 0 297.234 0 272.34V69.66Z" fill="white"/>
</mask>
<g mask="url(#mask0_114_134)">
<path d="M293.568 514.392C288.69 523.258 286.313 527.559 282.808 530.351C280.073 532.53 276.867 534.041 273.445 534.765C269.061 535.692 264.231 534.789 254.288 532.909L49.0976 494.125C39.1196 492.239 34.2758 491.314 30.5247 488.839C27.5969 486.908 25.1612 484.318 23.4121 481.278C21.1711 477.383 20.5433 472.492 19.2697 462.417L-6.87713 255.584C-8.14792 245.532 -8.75576 240.649 -7.55968 236.326C-6.62613 232.951 -4.91795 229.841 -2.57103 227.243C0.435843 223.914 4.88262 221.807 14.048 217.487L203.128 128.352C212.294 124.031 216.748 121.941 221.23 121.74C224.727 121.583 228.213 122.244 231.411 123.672C235.507 125.5 238.886 129.076 245.832 136.454L388.745 288.242C395.706 295.635 399.079 299.232 400.658 303.439C401.89 306.723 402.337 310.25 401.964 313.737C401.486 318.206 399.117 322.531 394.223 331.428L293.568 514.392Z" stroke="#6480E1" stroke-opacity="0.4"/>
<path d="M289.785 516.114C284.907 525.002 282.53 529.314 279.02 532.111C276.281 534.295 273.07 535.808 269.643 536.532C265.251 537.459 260.413 536.549 250.452 534.656L45.6621 495.738C35.7016 493.845 30.8664 492.916 27.1213 490.443C24.1983 488.513 21.7663 485.927 20.019 482.891C17.7805 479.001 17.1507 474.118 15.873 464.06L-10.3971 257.267C-11.6749 247.209 -12.2861 242.323 -11.0912 237.997C-10.1586 234.621 -8.4505 231.508 -6.10296 228.909C-3.09523 225.578 1.35426 223.47 10.5251 219.146L199.079 130.259C208.25 125.936 212.708 123.845 217.191 123.645C220.69 123.488 224.178 124.151 227.376 125.58C231.474 127.411 234.853 130.992 241.799 138.378L384.602 290.236C391.548 297.622 394.914 301.215 396.49 305.417C397.72 308.697 398.167 312.219 397.796 315.702C397.321 320.165 394.96 324.485 390.082 333.373L289.785 516.114Z" stroke="#6480E1" stroke-opacity="0.4"/>
<path d="M284.314 518.754C279.437 527.62 277.06 531.921 273.555 534.713C270.819 536.892 267.613 538.403 264.192 539.127C259.808 540.054 254.978 539.15 245.035 537.271L39.8441 498.487C29.8661 496.6 25.0224 495.675 21.2713 493.201C18.3435 491.269 15.9078 488.68 14.1587 485.64C11.9176 481.745 11.2899 476.854 10.0163 466.779L-16.1305 259.946C-17.4013 249.894 -18.0092 245.011 -16.8131 240.687C-15.8795 237.313 -14.1714 234.203 -11.8244 231.605C-8.81758 228.276 -4.3708 226.169 4.79456 221.849L193.875 132.713C203.04 128.393 207.495 126.303 211.976 126.102C215.474 125.945 218.96 126.606 222.157 128.033C226.253 129.862 229.633 133.438 236.579 140.815L379.491 292.604C386.452 299.997 389.826 303.594 391.404 307.801C392.637 311.085 393.084 314.612 392.711 318.099C392.232 322.567 389.864 326.893 384.969 335.79L284.314 518.754Z" stroke="#6480E1" stroke-opacity="0.4"/>
<path d="M279.691 520.873C274.813 529.761 272.435 534.072 268.926 536.87C266.187 539.053 262.976 540.567 259.548 541.291C255.157 542.218 250.318 541.308 240.358 539.415L35.5679 500.497C25.6074 498.604 20.7721 497.675 17.0271 495.202C14.104 493.272 11.672 490.686 9.9248 487.649C7.68625 483.76 7.05647 478.876 5.77875 468.819L-20.4914 262.025C-21.7691 251.967 -22.3803 247.082 -21.1855 242.756C-20.2529 239.379 -18.5447 236.267 -16.1972 233.667C-13.1895 230.336 -8.73998 228.228 0.430841 223.905L188.985 135.018C198.156 130.695 202.613 128.604 207.097 128.403C210.596 128.247 214.084 128.91 217.282 130.339C221.379 132.17 224.759 135.751 231.705 143.137L374.508 294.995C381.453 302.381 384.819 305.974 386.396 310.176C387.626 313.456 388.073 316.978 387.702 320.461C387.227 324.923 384.866 329.244 379.988 338.132L279.691 520.873Z" stroke="#6480E1" stroke-opacity="0.4"/>
</g>
</svg>
